<?xml version="1.0" encoding="UTF-8"?>
<svg width="223px" height="31px" viewBox="0 0 223 31" version="1.1" xmlns="http://www.w3.org/2000/svg" xmlns:xlink="http://www.w3.org/1999/xlink">
    <title>haikangweishi-2备份 2</title>
    <g id="登陆注册" stroke="none" stroke-width="1" fill="none" fill-rule="evenodd">
        <g id="07-账号注销" transform="translate(-40.000000, -40.000000)" fill-rule="nonzero">
            <g id="haikangweishi-2备份-2" transform="translate(40.000000, 40.000000)">
                <path d="M13.5050323,15.6895355 C13.3949007,16.0286353 13.1737687,16.3675138 13.0618994,16.8185409 C11.6215003,20.7676267 10.1813185,24.7173762 8.74091945,28.5529863 C8.4085698,29.3431132 8.4085698,29.45681 7.52230406,29.45681 L0.208005024,29.45681 C0.208005024,29.3435556 0.208005024,29.3435556 0.09765625,29.3435556 L0.09765625,29.0060042 C3.42158723,19.7523182 6.85651864,10.4995169 10.1811013,1.13346123 C10.2914501,0.907837105 10.2914501,0.795467441 10.4028849,0.570949314 L18.8243645,0.570949314 C17.4938798,4.29396862 16.1651328,7.7920274 14.8350825,11.5157103 C15.1683011,11.5157103 15.2779982,11.6278588 15.4993474,11.6278588 L24.2542627,11.6278588 C24.8086132,11.6278588 25.0306141,11.4031194 25.2517461,10.8390591 C26.3593611,7.7922486 27.4678449,4.74543808 28.5752426,1.58515189 C28.6868948,1.2476005 28.9084612,0.795909842 29.0196789,0.45703125 L37.4411584,0.45703125 C37.330158,0.795467441 37.330158,1.13390363 37.2185059,1.35952776 C34.6707091,8.35675132 32.1218262,15.4647961 29.5729433,22.4620197 L27.9109778,27.2012324 C27.3566273,28.7799377 26.470796,29.3444404 24.9191792,29.3444404 L18.6032325,29.3444404 C20.2647635,24.718261 21.926729,20.3174845 23.4783457,15.8041171 C22.9239952,15.5776082 14.7240821,15.5776082 13.5050323,15.6895355 L13.5050323,15.6895355 Z M77.1104565,29.4570313 L70.2408108,29.4570313 C68.800629,29.4570313 67.8029284,28.8925285 67.2485779,27.5374566 C66.2513117,25.6198727 65.2538283,23.7020676 64.3684314,21.7833777 C63.702646,20.4298541 62.926729,18.9613065 62.2624642,17.6082253 C62.1521154,17.3826012 62.0404633,17.1574195 61.8188969,16.8183197 C60.8220651,17.6082253 59.7129296,18.1727281 59.2702312,19.526694 C58.272965,22.4611349 57.1655673,25.3942486 56.056649,28.4408379 C55.9467346,28.7788317 55.8350825,29.1174891 55.6137333,29.4570313 L47.1918193,29.4570313 C50.7379684,19.752097 54.1735515,10.274114 57.6084829,0.681991777 L66.1403112,0.681991777 C64.9212614,4.18005056 63.5925144,7.67766693 62.3734646,11.0640196 L62.4838134,11.1761681 C62.7051626,11.0640196 62.926729,10.8388379 63.1493816,10.7249199 C67.1375774,7.56529727 71.1266421,4.51937155 75.1159241,1.35886416 C75.7817095,0.907615905 76.3347567,0.681991777 77.1104565,0.681991777 L82.0976562,0.681991777 C81.6543062,1.35886416 80.988738,1.69774275 80.4354735,2.14876981 L78.7724219,3.50273577 C78.2193747,3.95442643 77.5538065,4.40545348 77.0005421,4.85648054 C76.4464088,5.30905599 75.7817095,5.76030425 75.227359,6.2111101 L73.5640902,7.56485487 C73.0114774,8.01654553 72.3452575,8.46801498 71.7926448,8.91859964 L70.129376,10.2734504 C69.5763288,10.7244775 68.9103261,11.1755045 68.3577134,11.7402284 C68.4676277,12.0793282 68.5790626,12.3047312 68.6887597,12.6436097 C71.3484258,17.8338495 74.0087436,23.0236468 76.5561059,28.2154349 C76.6675408,28.5536499 76.8893245,28.8925285 77.1104565,29.4570313 L77.1104565,29.4570313 Z" id="形状" fill="#BA2921"></path>
                <path d="M211.789901,29.4071758 C210.46012,29.4071758 209.128818,29.5193506 207.91007,29.4071758 C206.690887,29.2941178 206.025562,28.5049197 205.583388,27.3798597 C204.695347,25.012707 203.809478,22.6488666 202.923175,20.1708641 C201.813721,17.0158382 200.594755,13.8625789 199.485953,10.7077739 C199.375573,10.4827619 199.263888,10.1433669 199.042693,9.6940054 C198.82128,10.2575291 198.710899,10.5958199 198.599215,10.9327859 C196.494164,16.6775474 194.387374,22.3094717 192.392486,28.0548957 C191.837324,29.6324086 192.058954,29.4071758 190.508847,29.4071758 L187.846461,29.4071758 C191.393412,19.7190736 194.830417,10.2575291 198.266553,0.682043243 L203.47573,0.682043243 C205.914095,6.99054925 208.463493,13.4103468 210.902511,19.8321316 C211.345554,19.7190736 211.345554,19.268608 211.456804,19.0431543 C212.787236,15.4387669 214.005984,11.9465543 215.335331,8.34260855 C216.111688,6.08961801 217.000164,3.83684829 217.773914,1.58275366 C217.885163,1.35774167 217.997282,1.02099654 218.107662,0.79510128 L222.097656,0.79510128 C218.77277,10.2575291 215.335982,19.8323524 211.789901,29.4071758 L211.789901,29.4071758 Z M85.0976562,0.682043243 L92.9668288,0.682043243 C93.2997086,3.94880224 93.521556,7.21556124 93.7431861,10.3703663 C94.0765004,13.6364628 94.1860117,16.9041051 94.5188914,20.0573644 L94.7407388,20.0573644 C94.850902,19.8321316 95.0736186,19.6071196 95.1833472,19.381666 C99.1739929,13.4103468 103.052954,7.44057323 107.043165,1.47035807 C107.487078,0.794880464 107.93099,0.45703125 108.817945,0.45703125 C109.925661,0.570310104 110.922996,0.45703125 112.143048,0.45703125 C112.032016,0.794880464 111.920766,1.02055491 111.809951,1.24578771 C105.936536,10.1431461 100.061165,19.0431543 94.186229,27.829442 C93.5217732,28.8434313 92.6348182,29.2938969 91.5264504,29.2938969 L88.2004778,29.2938969 C87.979065,29.2938969 87.6472716,29.2938969 87.3143919,29.1815014 C86.6495016,19.7190736 85.8731443,10.2575291 85.0976562,0.682043243 L85.0976562,0.682043243 Z M149.05337,0.57053092 C149.05337,0.794880464 149.05337,0.907055235 148.942338,1.02077572 C148.610327,2.034765 148.166198,3.04875427 147.83397,4.06252273 L136.305945,4.06252273 C135.086762,4.06252273 134.310839,4.51276753 133.756764,5.63804831 C133.313938,6.54030444 133.423884,7.55318964 134.089644,8.34260855 C135.198012,9.58094737 136.305945,10.932565 137.413878,12.0596123 C138.744962,13.5238464 140.185124,14.8761265 141.295012,16.5658142 C144.176204,21.1844117 141.848218,27.491372 136.63839,28.956931 C135.973282,29.1823846 135.309044,29.2938969 134.644371,29.2938969 L119.347548,29.2938969 C119.125483,29.2938969 118.903418,29.2938969 118.572929,29.1817222 C118.794341,28.6181985 119.01532,28.0546749 119.125483,27.4907096 L119.791677,25.8014635 C120.234503,25.8014635 120.56673,25.6895095 121.009991,25.6895095 L132.53845,25.6895095 C134.533338,25.5764515 135.641706,23.4367398 134.645023,21.6344357 C133.757199,20.0569228 132.53845,18.7046427 131.31905,17.3536874 C130.320628,16.339919 129.324162,15.2126509 128.43612,14.1988824 C125.553625,10.7071114 125.887591,5.75132716 129.101445,2.70935934 C130.65416,1.24534608 132.538233,0.569868471 134.533121,0.569868471 L149.05337,0.57053092 L149.05337,0.57053092 Z" id="形状" fill="#5E5E5C"></path>
                <path d="M42.6651364,0.45703125 L51.0976562,0.45703125 C51.0976562,1.13900912 41.3171232,27.9784836 40.6416842,29.4570312 L32.0976562,29.4570312 C35.5828334,19.7898444 39.0686716,10.1219887 42.6651364,0.45703125 L42.6651364,0.45703125 Z" id="路径" fill="#BA2921"></path>
                <path d="M151.898844,29.9779393 L144.061789,29.9779393 C147.592673,20.0892299 151.014933,10.4279688 154.43741,0.655575874 L162.163029,0.655575874 C162.053974,1.45897153 152.671536,28.3686684 151.898844,29.9779393 L151.898844,29.9779393 Z M105.097656,29.8634262 C108.519484,20.2032922 111.940663,10.427518 115.472628,0.655575874 L123.310115,0.655575874 C123.199112,1.11520655 123.089624,1.45897153 122.979271,1.80476528 C119.888504,10.4277434 116.908307,19.0541028 113.816891,27.6770809 C113.5964,28.2532536 113.375693,28.8280737 113.155635,29.5178578 C113.045281,29.8632007 112.823059,30.0931291 112.493296,30.0931291 L105.429366,30.0931291 C105.317931,30.0931291 105.206712,29.9779393 105.097656,29.8634262 L105.097656,29.8634262 Z M179.935156,0.507925999 C181.149262,0.507925999 182.474155,0.393412814 183.688477,0.507925999 C187.66229,0.852818073 190.751542,5.10738867 189.978417,9.24699523 C188.985884,13.9620982 187.550854,18.5624625 185.123074,22.7022945 C182.363152,27.5319107 178.1682,30.1760832 172.759574,30.4062367 C170.883129,30.5205245 168.896331,30.4062367 167.019238,30.4062367 C162.604877,30.2910472 159.294052,26.1509898 160.175799,21.6673929 C161.170712,16.7214602 162.715663,12.0074843 165.364366,7.86742694 C168.234859,3.15254941 172.429811,0.738755727 177.838437,0.622890024 C178.389989,0.392961974 179.162464,0.507925999 179.935156,0.507925999 L179.935156,0.507925999 Z M170.44323,27.5314598 C173.532265,27.4167212 176.181185,25.8063232 177.395508,22.5862034 C179.162464,17.6422995 180.928122,12.6974939 182.584292,7.75223749 C183.355902,5.45228074 182.032957,3.38225204 179.604311,3.38225204 C176.402974,3.38225204 173.754487,5.22235269 172.650302,8.32750846 C170.883346,13.2725395 169.227609,18.1026064 167.461734,23.0469612 C166.690124,25.0020258 167.792795,27.5314598 170.44323,27.5314598 L170.44323,27.5314598 Z" id="形状" fill="#5E5E5C"></path>
            </g>
        </g>
    </g>
</svg>