<svg id="Capa_1" data-name="Capa 1" xmlns="http://www.w3.org/2000/svg" viewBox="0 0 464.36 75.9"><defs><style>.cls-1{fill:#f6e000;}.cls-2{fill:#fff;}.cls-3{fill:none;stroke:#fff;stroke-linecap:round;stroke-miterlimit:22.93;stroke-width:0.71px;}</style></defs><title>logoblanco</title><path class="cls-1" d="M63.35,25.25A12.78,12.78,0,1,1,50.57,12.48,12.78,12.78,0,0,1,63.35,25.25" transform="translate(-13.15 -12.48)"/><path class="cls-2" d="M63.35,69.68a1.24,1.24,0,0,0-1.22-1.22H39a1.23,1.23,0,0,0-1.23,1.22v3.75A1.23,1.23,0,0,0,39,74.65h23.1a1.23,1.23,0,0,0,1.22-1.22V69.68ZM88,57.46a1.22,1.22,0,0,0-1.21-1.24H14.35a1.23,1.23,0,0,0-1.21,1.24v3.73a1.22,1.22,0,0,0,1.21,1.21H86.79A1.21,1.21,0,0,0,88,61.19V57.46Zm0-13.32a1.21,1.21,0,0,0-1.21-1.22H14.35a1.22,1.22,0,0,0-1.21,1.22v3.74a1.22,1.22,0,0,0,1.21,1.21H86.79A1.21,1.21,0,0,0,88,47.88V44.13Zm39,21.25h0a67.9,67.9,0,0,0-12.61,3c-4.09,1.33-6.9,2.72-6.9,7.58,0,5.28,4,7.5,8.66,7.5,9.23,0,10.84-6.51,10.84-14.67V65.38Zm0.88,22-0.08-7c-3,5.93-7.39,8-13.8,8-7.24,0-13.51-4-13.51-12,0-5.12,2.1-8.81,6.9-10.54,6.11-2.23,19.52-4.2,19.52-4.2,0.23-8.32-1.3-13.51-10-13.51-4.72,0-8.42,1.81-10.11,6.5h-2.41l-1.12-6.1c3.62-4.53,9.64-5.6,15-5.6,4.89,0,8.5.9,11,3,2.89,2.47,4.17,6.43,4.17,12.36,0,5-.3,9.8-0.3,14.74,0,7.17-1.05,11.54,7.78,12v2.46h-13Zm30.87,1c-4.32,0-8.26-.75-11.86-3.13l1.06-7.35c3.43,3.28,7.62,6.22,12.59,6.22,4.66,0,8.43-2.69,8.43-7.59,0-5.58-4.51-7.2-9.49-8.77-6-1.78-12.67-3.59-12.67-12.09,0-9.5,8.25-12.76,16.52-12.76a27.3,27.3,0,0,1,10.8,1.95l-1.31,10.31h-2.46c-0.49-4.82-3.19-7.93-8.34-7.93-4.08,0-8.42,2.37-8.42,7,0,5.31,4.67,6.86,9.74,8.41,6,1.88,12.76,3.83,12.76,12.44C176.07,84.86,167.23,88.37,158.72,88.37Zm38.86,0c-4.33,0-8.26-.75-11.86-3.13l1.06-7.35c3.44,3.28,7.62,6.22,12.6,6.22,4.67,0,8.42-2.69,8.42-7.59,0-5.58-4.5-7.2-9.48-8.77-6-1.78-12.67-3.59-12.67-12.09,0-9.5,8.25-12.76,16.52-12.76A27.26,27.26,0,0,1,213,44.85l-1.31,10.31h-2.46c-0.49-4.82-3.19-7.93-8.35-7.93-4.09,0-8.42,2.37-8.42,7,0,5.31,4.66,6.86,9.74,8.41,6,1.88,12.75,3.83,12.75,12.44C214.92,84.86,206.08,88.37,197.58,88.37Zm45-41.44h0c-8.58,0-11.3,5.77-12.3,13.37l22.93-1C253.31,51.8,250.68,46.94,242.6,46.94Zm17.48,17.15-29.94-.17c0,11,4.36,19.55,16.66,19.55a24.42,24.42,0,0,0,12.38-3.64l-0.42,4.63c-4.29,3-8.5,3.88-13.61,3.88-14.1,0-22-9.41-22-23.11,0-12.13,6.77-22.67,20-22.42,12.45,0.16,17.16,6.27,17.16,17.32C260.33,61.44,260.16,62.77,260.08,64.09ZM63.35,82.86a1.24,1.24,0,0,0-1.22-1.22H39a1.24,1.24,0,0,0-1.23,1.22v3.73A1.24,1.24,0,0,0,39,87.83h23.1a1.25,1.25,0,0,0,1.22-1.24V82.86Z" transform="translate(-13.15 -12.48)"/><path class="cls-2" d="M295.46,61.67H300l-2.13-4.9a1.11,1.11,0,0,1-.06-0.17,1.46,1.46,0,0,1,0-.18,1.5,1.5,0,0,1,0-.2c0,0.07,0,.13,0,0.2s0,0.12,0,.18a0.9,0.9,0,0,1-.06.17Zm1.91-6.45h0.7l1,2.4,1,2.37,1,2.37,1,2.39h-0.37a0.78,0.78,0,0,1-.44-0.13,0.83,0.83,0,0,1-.3-0.35l-0.78-1.77h-5.26l-0.76,1.77a0.76,0.76,0,0,1-.29.35,0.81,0.81,0,0,1-.45.13h-0.37Z" transform="translate(-13.15 -12.48)"/><path class="cls-2" d="M305.67,58.52a2.41,2.41,0,0,0-1.06.23,2.66,2.66,0,0,0-.82.61,2.77,2.77,0,0,0-.53.88,2.87,2.87,0,0,0-.19,1,2.93,2.93,0,0,0,.19,1,2.74,2.74,0,0,0,.53.88,2.62,2.62,0,0,0,.82.6,2.47,2.47,0,0,0,1.06.22,3,3,0,0,0,1.21-.27,3.51,3.51,0,0,0,1.05-.73V59.52a3.56,3.56,0,0,0-1.05-.73,2.9,2.9,0,0,0-1.21-.27m2.42,6.23a0.4,0.4,0,0,1-.08-0.12,0.57,0.57,0,0,1-.06-0.16,1,1,0,0,1,0-.23V64a3.84,3.84,0,0,1-.66.5,3.24,3.24,0,0,1-.59.27,2.34,2.34,0,0,1-.53.11l-0.48,0a3.33,3.33,0,0,1-1.37-.28,3.39,3.39,0,0,1-1.09-.77,3.61,3.61,0,0,1-.72-1.15,3.85,3.85,0,0,1,0-2.8,3.6,3.6,0,0,1,.72-1.15A3.37,3.37,0,0,1,304.3,58a3.32,3.32,0,0,1,1.37-.28l0.48,0a2.22,2.22,0,0,1,.53.12,3.23,3.23,0,0,1,.59.27,4.22,4.22,0,0,1,.66.49V55.23h0.85v9.53h-0.69Z" transform="translate(-13.15 -12.48)"/><path class="cls-2" d="M317.83,57.66a2.44,2.44,0,0,1,1.15.24,1.88,1.88,0,0,1,.72.66,2.77,2.77,0,0,1,.37,1,6.56,6.56,0,0,1,.11,1.21v4h-0.86v-4a4.88,4.88,0,0,0-.07-0.8,2.27,2.27,0,0,0-.24-0.72,1.44,1.44,0,0,0-.47-0.52,1.33,1.33,0,0,0-.76-0.2,2.4,2.4,0,0,0-.75.11,1.94,1.94,0,0,0-.58.29,1.41,1.41,0,0,0-.38.42,1.16,1.16,0,0,0-.16.51v4.9h-0.86v-4.1c0-.08,0-0.18,0-0.32A2.94,2.94,0,0,0,315,59.9a3.27,3.27,0,0,0-.16-0.48,1.76,1.76,0,0,0-.26-0.44,1.27,1.27,0,0,0-.4-0.33,1.16,1.16,0,0,0-.56-0.13,2.47,2.47,0,0,0-.92.15,2,2,0,0,0-.6.36,1.3,1.3,0,0,0-.33.44,1,1,0,0,0-.09.38v4.9H310.8v-7h0.74a0.37,0.37,0,0,1,.08.14,0.5,0.5,0,0,1,0,.18V58.7a1,1,0,0,1,.21-0.3,2.12,2.12,0,0,1,.42-0.34,2.59,2.59,0,0,1,.59-0.27,2.36,2.36,0,0,1,.75-0.11,2.08,2.08,0,0,1,.75.13,2,2,0,0,1,.56.32,1.8,1.8,0,0,1,.39.45,2.09,2.09,0,0,1,.22.5,2.89,2.89,0,0,1,.43-0.66,2.3,2.3,0,0,1,.53-0.44,2.17,2.17,0,0,1,.61-0.24,3.2,3.2,0,0,1,.69-0.07h0Z" transform="translate(-13.15 -12.48)"/><path class="cls-2" d="M321.84,55.81a0.68,0.68,0,0,1,.05-0.27,0.7,0.7,0,0,1,.15-0.22,0.72,0.72,0,0,1,.22-0.15,0.69,0.69,0,0,1,.27-0.05,0.7,0.7,0,0,1,.27.05,0.73,0.73,0,0,1,.22.15,0.68,0.68,0,0,1,.15.22,0.67,0.67,0,0,1,.05.27,0.68,0.68,0,0,1-.05.27,0.66,0.66,0,0,1-.15.22,0.68,0.68,0,0,1-.22.15,0.71,0.71,0,0,1-.27.05,0.7,0.7,0,0,1-.27-0.05,0.67,0.67,0,0,1-.22-0.15,0.68,0.68,0,0,1-.15-0.22,0.69,0.69,0,0,1-.05-0.27m1.1,2v7h-0.85v-7h0.85Z" transform="translate(-13.15 -12.48)"/><path class="cls-2" d="M325.8,57.77a1.09,1.09,0,0,1,.06.16,1.32,1.32,0,0,1,0,.29v0.6a3.23,3.23,0,0,1,.54-0.52,3.28,3.28,0,0,1,1.24-.58,3,3,0,0,1,.64-0.07,2.36,2.36,0,0,1,1,.22,2.14,2.14,0,0,1,.78.62,2.9,2.9,0,0,1,.49,1,4.4,4.4,0,0,1,.17,1.28v4h-0.85v-4a2.82,2.82,0,0,0-.42-1.65,1.47,1.47,0,0,0-1.28-.58,3.17,3.17,0,0,0-.91.13,2.56,2.56,0,0,0-.73.35,1.84,1.84,0,0,0-.5.51,1.26,1.26,0,0,0-.21.61v4.66H325v-7h0.77Z" transform="translate(-13.15 -12.48)"/><path class="cls-2" d="M332.63,55.81a0.68,0.68,0,0,1,.05-0.27,0.7,0.7,0,0,1,.15-0.22,0.72,0.72,0,0,1,.22-0.15,0.69,0.69,0,0,1,.27-0.05,0.7,0.7,0,0,1,.27.05,0.73,0.73,0,0,1,.22.15,0.68,0.68,0,0,1,.15.22,0.67,0.67,0,0,1,.05.27,0.68,0.68,0,0,1-.05.27,0.67,0.67,0,0,1-.15.22,0.69,0.69,0,0,1-.22.15,0.71,0.71,0,0,1-.27.05,0.7,0.7,0,0,1-.27-0.05,0.67,0.67,0,0,1-.22-0.15,0.68,0.68,0,0,1-.15-0.22,0.69,0.69,0,0,1-.05-0.27m1.1,2v7h-0.85v-7h0.85Z" transform="translate(-13.15 -12.48)"/><path class="cls-2" d="M334.94,63.78l0.34-.17a0.59,0.59,0,0,1,.27-0.06l0.23,0a0.93,0.93,0,0,1,.3.14,1.54,1.54,0,0,0,.44.21A1.62,1.62,0,0,0,337,64a2,2,0,0,0,.55-0.08,1.61,1.61,0,0,0,.5-0.23,1.27,1.27,0,0,0,.37-0.39,1.16,1.16,0,0,0,.16-0.56,1.35,1.35,0,0,0-.08-0.38,0.86,0.86,0,0,0-.22-0.32,1.79,1.79,0,0,0-.42-0.29,5.22,5.22,0,0,0-.68-0.29l-0.14,0-0.68-.26a2.49,2.49,0,0,1-.61-0.35,1.67,1.67,0,0,1-.44-0.54,1.76,1.76,0,0,1-.17-0.82,1.45,1.45,0,0,1,.18-0.72,1.71,1.71,0,0,1,.46-0.53,2.09,2.09,0,0,1,.63-0.33,2.63,2.63,0,0,1,.7-0.13h0.06a2,2,0,0,1,.64.13,2.9,2.9,0,0,1,.52.27,3.05,3.05,0,0,1,.4.32L339,58.72l-0.13.11a1.5,1.5,0,0,1-.23.16,0.54,0.54,0,0,1-.26.07l-0.17,0L338,58.94l-0.17-.1-0.18-.1a1.05,1.05,0,0,0-.33-0.12l-0.26,0a1.3,1.3,0,0,0-.52.1,1.22,1.22,0,0,0-.35.23,0.88,0.88,0,0,0-.2.28,0.65,0.65,0,0,0-.06.24,0.89,0.89,0,0,0,.12.46,1.06,1.06,0,0,0,.31.32,2,2,0,0,0,.44.23l0.49,0.18,0.07,0a6.57,6.57,0,0,1,.74.3,2.89,2.89,0,0,1,.65.42,1.92,1.92,0,0,1,.45.58,1.73,1.73,0,0,1,.17.8,1.86,1.86,0,0,1-.19.82,2.19,2.19,0,0,1-.51.68,2.48,2.48,0,0,1-.77.46,2.64,2.64,0,0,1-.95.17,2.51,2.51,0,0,1-1.16-.28,2.41,2.41,0,0,1-.9-0.8" transform="translate(-13.15 -12.48)"/><path class="cls-2" d="M342.1,63.13a1,1,0,0,0,.06.33,1.08,1.08,0,0,0,.16.31,0.84,0.84,0,0,0,.26.23,0.74,0.74,0,0,0,.36.09l0.21,0a1.88,1.88,0,0,1,.47-0.08,0.61,0.61,0,0,1,.37.12,1.4,1.4,0,0,1,.29.29l0,0a2,2,0,0,1-.32.18l-0.37.14-0.37.1a1.68,1.68,0,0,1-.33,0,1.77,1.77,0,0,1-.69-0.13,1.46,1.46,0,0,1-.52-0.36,1.57,1.57,0,0,1-.33-0.55,2,2,0,0,1-.12-0.7V58.55H340V58.07q0-.3.82-0.3h0.45V56.19a1.43,1.43,0,0,1,.08-0.5,2.1,2.1,0,0,1,.14-0.3h0.64v2.38h2.09v0.78H342.1v4.58Z" transform="translate(-13.15 -12.48)"/><path class="cls-2" d="M346,57.78a1.07,1.07,0,0,1,.06.14,0.52,0.52,0,0,1,0,.18v0.78a1.54,1.54,0,0,1,.39-0.48A2.81,2.81,0,0,1,347,58a3.44,3.44,0,0,1,.72-0.25,3.38,3.38,0,0,1,.77-0.09,2.63,2.63,0,0,1,.78.11l-0.07.37a0.53,0.53,0,0,1-.09.23,0.34,0.34,0,0,1-.14.12,0.55,0.55,0,0,1-.19,0h-0.31a2.62,2.62,0,0,0-.92.16,3,3,0,0,0-.77.41,2.2,2.2,0,0,0-.54.57,1.31,1.31,0,0,0-.22.63v4.44H345.2v-7H346Z" transform="translate(-13.15 -12.48)"/><path class="cls-2" d="M351.79,64a3.25,3.25,0,0,0,.59-0.06,6,6,0,0,0,.65-0.16,6.93,6.93,0,0,0,.67-0.25c0.22-.1.44-0.21,0.66-0.33V61.68l-0.21,0-0.4,0-0.5,0h-0.52a6.28,6.28,0,0,0-.93.06,2.56,2.56,0,0,0-.74.21,1.24,1.24,0,0,0-.48.4,1,1,0,0,0-.18.62,1,1,0,0,0,.1.44,1.13,1.13,0,0,0,.29.36,1.38,1.38,0,0,0,.44.24,1.76,1.76,0,0,0,.56.09M350,58.8l0.2-.23,0.21-.19,0.23-.17a4.43,4.43,0,0,1,.85-0.39,3.3,3.3,0,0,1,1-.15,2.74,2.74,0,0,1,1,.15,2.25,2.25,0,0,1,.7.41,2.21,2.21,0,0,1,.49.61,3.52,3.52,0,0,1,.31.75,5.08,5.08,0,0,1,.16.83,7.69,7.69,0,0,1,0,.84v3.48H354.5a1,1,0,0,1-.09-0.16,0.69,0.69,0,0,1,0-.29V64a3.61,3.61,0,0,1-.62.42,4.3,4.3,0,0,1-.64.28,3.39,3.39,0,0,1-.62.15,3.91,3.91,0,0,1-.57,0H351.8a2.74,2.74,0,0,1-.86-0.16,2.32,2.32,0,0,1-.72-0.4,1.93,1.93,0,0,1-.49-0.62,1.78,1.78,0,0,1-.18-0.81,2,2,0,0,1,.19-0.89,1.76,1.76,0,0,1,.59-0.68,2.93,2.93,0,0,1,1-.43,5.72,5.72,0,0,1,1.41-.15l0.51,0,0.5,0,0.4,0.05,0.22,0a4.63,4.63,0,0,0-.23-1.18,2.1,2.1,0,0,0-.41-0.72,1.3,1.3,0,0,0-.55-0.36,2.29,2.29,0,0,0-1.33,0,2.85,2.85,0,0,0-.6.29L351,59a0.57,0.57,0,0,1-.31.07,0.87,0.87,0,0,1-.53-0.2Z" transform="translate(-13.15 -12.48)"/><path class="cls-2" d="M360.05,58.52a2.72,2.72,0,0,0-1.08.21,2.71,2.71,0,0,0-1.46,1.46,2.83,2.83,0,0,0,0,2.15,2.75,2.75,0,0,0,.58.87,2.74,2.74,0,0,0,2,.8,2.53,2.53,0,0,0,.71-0.1,3.46,3.46,0,0,0,.65-0.26l0.21-.09a0.66,0.66,0,0,1,.22,0,0.6,0.6,0,0,1,.32.09,1.3,1.3,0,0,1,.25.2l0.07,0.07a3,3,0,0,1-.45.37,3.56,3.56,0,0,1-.58.31,4.06,4.06,0,0,1-.67.22,3.29,3.29,0,0,1-.74.08,3.53,3.53,0,0,1-1-.13,3.73,3.73,0,0,1-.86-0.36,3.5,3.5,0,0,1-.73-0.56,3.59,3.59,0,0,1-.93-1.59,3.55,3.55,0,0,1,0-1.91,3.63,3.63,0,0,1,1.66-2.15,3.68,3.68,0,0,1,.86-0.36,3.52,3.52,0,0,1,1-.13,3.42,3.42,0,0,1,.72.08,3.65,3.65,0,0,1,1.24.52,3.45,3.45,0,0,1,.48.39l-0.07.07a1.19,1.19,0,0,1-.27.21,0.72,0.72,0,0,1-.34.08,0.6,0.6,0,0,1-.21,0l-0.19-.09a2.65,2.65,0,0,0-.66-0.27,3.27,3.27,0,0,0-.7-0.1" transform="translate(-13.15 -12.48)"/><path class="cls-2" d="M363.46,55.81a0.69,0.69,0,0,1,.05-0.27,0.69,0.69,0,0,1,.15-0.22,0.71,0.71,0,0,1,.22-0.15,0.69,0.69,0,0,1,.27-0.05,0.69,0.69,0,0,1,.27.05,0.73,0.73,0,0,1,.22.15,0.68,0.68,0,0,1,.15.22,0.67,0.67,0,0,1,.05.27,0.68,0.68,0,0,1-.05.27,0.67,0.67,0,0,1-.15.22,0.68,0.68,0,0,1-.22.15,0.71,0.71,0,0,1-.27.05,0.7,0.7,0,0,1-.27-0.05,0.67,0.67,0,0,1-.22-0.15,0.68,0.68,0,0,1-.15-0.22,0.69,0.69,0,0,1-.05-0.27m1.1,2v7h-0.85v-7h0.85Z" transform="translate(-13.15 -12.48)"/><path class="cls-2" d="M370.43,56.78a0.85,0.85,0,0,1-.24.17,0.88,0.88,0,0,1-.36.08h-0.29l0.34-.6,0.31-.52,0.23-.37,0.09-.15a0.63,0.63,0,0,1,.25-0.19,0.92,0.92,0,0,1,.4-0.09h0.5ZM367,61.27a2.75,2.75,0,0,0,4.69,1.95,2.75,2.75,0,0,0,.58-0.87,2.77,2.77,0,0,0-.58-3,2.76,2.76,0,0,0-.87-0.59,2.82,2.82,0,0,0-2.15,0,2.74,2.74,0,0,0-.88.59A2.73,2.73,0,0,0,367,61.27Zm-0.85,0a3.51,3.51,0,0,1,.13-1,3.59,3.59,0,0,1,.37-0.86,3.65,3.65,0,0,1,.56-0.73,3.53,3.53,0,0,1,.73-0.56,3.65,3.65,0,0,1,.86-0.36,3.61,3.61,0,0,1,2.35.15,3.62,3.62,0,0,1,1.91,1.91,3.62,3.62,0,0,1,0,2.8,3.62,3.62,0,0,1-1.91,1.92,3.58,3.58,0,0,1-2.35.15,3.71,3.71,0,0,1-.86-0.36,3.48,3.48,0,0,1-.73-0.56,3.6,3.6,0,0,1-.93-1.59A3.49,3.49,0,0,1,366.16,61.27Z" transform="translate(-13.15 -12.48)"/><path class="cls-2" d="M375.57,57.77a1.09,1.09,0,0,1,.06.16,1.31,1.31,0,0,1,0,.29v0.6a3.23,3.23,0,0,1,.54-0.52,3.28,3.28,0,0,1,1.24-.58,3,3,0,0,1,.64-0.07,2.36,2.36,0,0,1,1,.22,2.14,2.14,0,0,1,.78.62,2.9,2.9,0,0,1,.49,1,4.4,4.4,0,0,1,.17,1.28v4h-0.85v-4a2.82,2.82,0,0,0-.42-1.65,1.47,1.47,0,0,0-1.28-.58,3.17,3.17,0,0,0-.91.13,2.56,2.56,0,0,0-.73.35,1.84,1.84,0,0,0-.5.51,1.26,1.26,0,0,0-.21.61v4.66H374.8v-7h0.77Z" transform="translate(-13.15 -12.48)"/><path class="cls-2" d="M389.59,58.52a2.41,2.41,0,0,0-1.06.23,2.66,2.66,0,0,0-.82.61,2.77,2.77,0,0,0-.53.88,2.87,2.87,0,0,0-.19,1,2.93,2.93,0,0,0,.19,1,2.73,2.73,0,0,0,.53.88,2.62,2.62,0,0,0,.82.6,2.47,2.47,0,0,0,1.06.22,3,3,0,0,0,1.21-.27,3.51,3.51,0,0,0,1.05-.73V59.52a3.56,3.56,0,0,0-1.05-.73,2.9,2.9,0,0,0-1.21-.27M392,64.76a0.4,0.4,0,0,1-.08-0.12,0.56,0.56,0,0,1-.06-0.16,1,1,0,0,1,0-.23V64a3.85,3.85,0,0,1-.66.5,3.24,3.24,0,0,1-.59.27,2.34,2.34,0,0,1-.53.11l-0.48,0a3.33,3.33,0,0,1-1.37-.28,3.39,3.39,0,0,1-1.09-.77,3.61,3.61,0,0,1-.72-1.15,3.85,3.85,0,0,1,0-2.8,3.6,3.6,0,0,1,.72-1.15,3.37,3.37,0,0,1,1.09-.77,3.32,3.32,0,0,1,1.37-.28l0.48,0a2.22,2.22,0,0,1,.53.12,3.23,3.23,0,0,1,.59.27,4.24,4.24,0,0,1,.66.49V55.23h0.85v9.53H392Z" transform="translate(-13.15 -12.48)"/><path class="cls-2" d="M397.82,58.52a2.76,2.76,0,0,0-1,.18,2.79,2.79,0,0,0-.83.5,2.69,2.69,0,0,0-.6.75,2.64,2.64,0,0,0-.3.94,0.78,0.78,0,0,1,.12-0.2,0.28,0.28,0,0,1,.23-0.11h5a2.69,2.69,0,0,0-.37-0.87,2.66,2.66,0,0,0-.61-0.65,2.58,2.58,0,0,0-.77-0.4,2.81,2.81,0,0,0-.87-0.13m0-.85a3.51,3.51,0,0,1,2.2.77,3.56,3.56,0,0,1,.78.86,3.8,3.8,0,0,1,.48,1.08,1,1,0,0,1,0,.23,0.82,0.82,0,0,1-.06.32,0.93,0.93,0,0,1-.17.27,0.8,0.8,0,0,1-.25.18,0.75,0.75,0,0,1-.31.07h-5.43a2.64,2.64,0,0,0,.25,1,2.68,2.68,0,0,0,1.44,1.35,2.76,2.76,0,0,0,1,.19,1.93,1.93,0,0,0,.38,0,2.85,2.85,0,0,0,.41-0.11l0.4-.16a3.23,3.23,0,0,0,.36-0.2,0.63,0.63,0,0,1,.21-0.09l0.22,0,0.19,0,0.15,0.07,0.14,0.1,0.15,0.13a4.1,4.1,0,0,1-1.18.82,4,4,0,0,1-.7.25,3.05,3.05,0,0,1-.74.09,3.54,3.54,0,0,1-1-.13,3.71,3.71,0,0,1-.86-0.36,3.49,3.49,0,0,1-.73-0.56,3.64,3.64,0,0,1-.56-0.73,3.6,3.6,0,0,1-.37-0.86,3.56,3.56,0,0,1,.15-2.35,3.65,3.65,0,0,1,.78-1.14,3.69,3.69,0,0,1,1.15-.77A3.47,3.47,0,0,1,397.8,57.67Z" transform="translate(-13.15 -12.48)"/><rect class="cls-2" x="393.78" y="42.75" width="0.85" height="9.53"/><path class="cls-2" d="M410.22,61.27a2.71,2.71,0,0,0,.21,1.08,2.74,2.74,0,0,0,.59.87,2.76,2.76,0,0,0,3.89,0,2.74,2.74,0,0,0,.58-0.87,2.77,2.77,0,0,0-.58-3,2.76,2.76,0,0,0-.87-0.59,2.82,2.82,0,0,0-2.15,0,2.71,2.71,0,0,0-1.46,1.46,2.7,2.7,0,0,0-.21,1.08m-0.85,0a3.51,3.51,0,0,1,.13-1,3.58,3.58,0,0,1,.37-0.86,3.65,3.65,0,0,1,.56-0.73,3.54,3.54,0,0,1,.73-0.56A3.66,3.66,0,0,1,412,57.8a3.61,3.61,0,0,1,2.35.15,3.62,3.62,0,0,1,1.91,1.91,3.63,3.63,0,0,1,0,2.8,3.62,3.62,0,0,1-1.91,1.92,3.58,3.58,0,0,1-2.35.15,3.72,3.72,0,0,1-.86-0.36,3.49,3.49,0,0,1-.73-0.56,3.6,3.6,0,0,1-.93-1.59A3.49,3.49,0,0,1,409.37,61.27Z" transform="translate(-13.15 -12.48)"/><path class="cls-2" d="M417.13,63.78l0.34-.17a0.59,0.59,0,0,1,.27-0.06l0.23,0a0.93,0.93,0,0,1,.3.14,1.54,1.54,0,0,0,.44.21,1.62,1.62,0,0,0,.49.07,2,2,0,0,0,.55-0.08,1.61,1.61,0,0,0,.5-0.23,1.26,1.26,0,0,0,.37-0.39,1.16,1.16,0,0,0,.16-0.56,1.33,1.33,0,0,0-.08-0.38,0.86,0.86,0,0,0-.22-0.32,1.79,1.79,0,0,0-.42-0.29,5.19,5.19,0,0,0-.68-0.29l-0.14,0-0.68-.26a2.49,2.49,0,0,1-.61-0.35,1.67,1.67,0,0,1-.44-0.54,1.76,1.76,0,0,1-.17-0.82,1.46,1.46,0,0,1,.18-0.72,1.71,1.71,0,0,1,.46-0.53,2.09,2.09,0,0,1,.63-0.33,2.63,2.63,0,0,1,.7-0.13h0.06a2,2,0,0,1,.64.13,2.9,2.9,0,0,1,.52.27,3,3,0,0,1,.4.32l0.27,0.28-0.13.11a1.49,1.49,0,0,1-.23.16,0.54,0.54,0,0,1-.26.07l-0.17,0-0.16-.08-0.17-.1-0.18-.1a1.05,1.05,0,0,0-.33-0.12l-0.26,0a1.3,1.3,0,0,0-.52.1,1.22,1.22,0,0,0-.35.23,0.88,0.88,0,0,0-.2.28,0.65,0.65,0,0,0-.06.24,0.88,0.88,0,0,0,.12.46,1.06,1.06,0,0,0,.31.32,2.05,2.05,0,0,0,.44.23l0.49,0.18,0.07,0a6.57,6.57,0,0,1,.74.3,2.88,2.88,0,0,1,.65.42,1.92,1.92,0,0,1,.45.58,1.73,1.73,0,0,1,.17.8,1.85,1.85,0,0,1-.19.82,2.19,2.19,0,0,1-.51.68,2.48,2.48,0,0,1-.77.46,2.64,2.64,0,0,1-.95.17,2.51,2.51,0,0,1-1.16-.28,2.41,2.41,0,0,1-.9-0.8" transform="translate(-13.15 -12.48)"/><path class="cls-2" d="M297.16,72a1.78,1.78,0,0,0-.52.07,1.49,1.49,0,0,0-.44.2,1,1,0,0,0-.3.31,0.77,0.77,0,0,0-.11.4,0.91,0.91,0,0,0,.12.5,1,1,0,0,0,.38.33,4.63,4.63,0,0,0,.68.29l1,0.37a5.58,5.58,0,0,1,.94.45,2.93,2.93,0,0,1,.7.59,2.45,2.45,0,0,1,.44.75,2.83,2.83,0,0,1-.12,2.13,3,3,0,0,1-.73.94,3.36,3.36,0,0,1-1.06.61,3.72,3.72,0,0,1-1.26.21,3.46,3.46,0,0,1-1.24-.22,3.11,3.11,0,0,1-1-.63,3,3,0,0,1-.51-0.6,4.85,4.85,0,0,1-.28-0.51l0.24-.13L294.3,78l0.23-.08a1,1,0,0,1,.26,0,1.27,1.27,0,0,1,.42.07,1.13,1.13,0,0,1,.36.2l0.05,0a3.27,3.27,0,0,0,.57.34,1.69,1.69,0,0,0,.7.14,2.17,2.17,0,0,0,.62-0.09,2,2,0,0,0,.58-0.28,1.56,1.56,0,0,0,.44-0.46,1.15,1.15,0,0,0,.17-0.62,1,1,0,0,0-.16-0.57,1.45,1.45,0,0,0-.42-0.38,3.06,3.06,0,0,0-.58-0.28l-0.65-.24-1-.4a3.75,3.75,0,0,1-.84-0.51,2.2,2.2,0,0,1-.82-1.82,2.26,2.26,0,0,1,.25-1.07,2.57,2.57,0,0,1,.65-0.79,2.93,2.93,0,0,1,.93-0.49,3.43,3.43,0,0,1,1.07-.17,2.39,2.39,0,0,1,.79.14,3.78,3.78,0,0,1,.73.35,4.16,4.16,0,0,1,.63.47,4.58,4.58,0,0,1,.48.5l-0.34.26a1.13,1.13,0,0,1-.39.23,1.23,1.23,0,0,1-.42.08,0.9,0.9,0,0,1-.4-0.09l-0.56-.27a1.17,1.17,0,0,0-.52-0.13" transform="translate(-13.15 -12.48)"/><path class="cls-2" d="M306.67,75.7a2,2,0,0,0-.28-0.45,1.91,1.91,0,0,0-.42-0.38,2.15,2.15,0,0,0-.54-0.27,2,2,0,0,0-.65-0.1,2,2,0,0,0-.71.12,2.1,2.1,0,0,0-.58.31,1.93,1.93,0,0,0-.43.45,1.82,1.82,0,0,0-.26.52,0.6,0.6,0,0,1,.14-0.12,0.43,0.43,0,0,1,.26-0.07h3.47Zm1.6,0.35a1,1,0,0,1-.1.45,1.08,1.08,0,0,1-.25.33,1.12,1.12,0,0,1-.33.2,1,1,0,0,1-.34.07h-4.5a1.8,1.8,0,0,0,.22.61,2.17,2.17,0,0,0,.43.54,2.07,2.07,0,0,0,.61.39,1.84,1.84,0,0,0,.75.15,2.1,2.1,0,0,0,.54-0.07,2.06,2.06,0,0,0,.48-0.2,1.14,1.14,0,0,1,.58-0.16,1,1,0,0,1,.42.09,1.22,1.22,0,0,1,.36.25L307.47,79a3.8,3.8,0,0,1-1.23.89,3.56,3.56,0,0,1-1.48.32,3.48,3.48,0,0,1-1.39-.28A3.61,3.61,0,0,1,301.46,78a3.57,3.57,0,0,1,0-2.79,3.59,3.59,0,0,1,.77-1.14,3.66,3.66,0,0,1,1.14-.77,3.48,3.48,0,0,1,1.39-.28,3.4,3.4,0,0,1,1.18.21,3.71,3.71,0,0,1,1,.56,3.62,3.62,0,0,1,.79.85,3.56,3.56,0,0,1,.48,1.06,0.57,0.57,0,0,1,0,.17C308.26,76,308.27,76,308.27,76.05Z" transform="translate(-13.15 -12.48)"/><path class="cls-2" d="M310.92,73.14l0,0a0.4,0.4,0,0,1,.06.1l0.06,0.15a0.56,0.56,0,0,1,0,.18,1.67,1.67,0,0,1,0,.21V74a1.55,1.55,0,0,1,.32-0.38,2.42,2.42,0,0,1,.45-0.3,2.55,2.55,0,0,1,.52-0.21A2,2,0,0,1,313,73a2.77,2.77,0,0,1,.57.06,3.36,3.36,0,0,1,.56.17c0,0.1,0,.21-0.06.32l-0.05.32a0.83,0.83,0,0,1-.83.66H313a2.21,2.21,0,0,0-.72.11,2,2,0,0,0-.57.29,1.39,1.39,0,0,0-.37.41,1,1,0,0,0-.14.47v4.26h-1.53v-7h1.3Z" transform="translate(-13.15 -12.48)"/><path class="cls-2" d="M316.7,80.12l-1.5-3.49-1.49-3.49h0.92a1.15,1.15,0,0,1,.33,0,1,1,0,0,1,.3.14,1.14,1.14,0,0,1,.24.21,1,1,0,0,1,.17.27l1.62,3.78a3,3,0,0,1,.13.36,3.31,3.31,0,0,1,.09.44,1.28,1.28,0,0,1,.1-0.5c0.07-.18.16-0.4,0.27-0.67l1.47-3.43a1.13,1.13,0,0,1,1-.66h0.91l-3,7H316.7Z" transform="translate(-13.15 -12.48)"/><path class="cls-2" d="M322,71.38A0.92,0.92,0,0,1,322,71a1,1,0,0,1,.21-0.31,1.07,1.07,0,0,1,.32-0.21,1,1,0,0,1,.39-0.08,0.93,0.93,0,0,1,.39.08,1.1,1.1,0,0,1,.32.21,1,1,0,0,1,.21.31,1,1,0,0,1,0,.77,1,1,0,0,1-.21.31,1,1,0,0,1-.7.29,1,1,0,0,1-.39-0.08,1,1,0,0,1-.32-0.21,1.06,1.06,0,0,1-.21-0.31,0.92,0.92,0,0,1-.08-0.38m1.75,1.85v6.89h-1.53V73.23h1.53Z" transform="translate(-13.15 -12.48)"/><path class="cls-2" d="M328.91,74.56a2,2,0,0,0-.8.16,2.17,2.17,0,0,0-.66.44,2,2,0,0,0-.45.66,2,2,0,0,0-.17.81,2,2,0,0,0,.17.82,2.06,2.06,0,0,0,.45.66,2.18,2.18,0,0,0,.66.44,2,2,0,0,0,.8.16,2.1,2.1,0,0,0,.62-0.09l0.59-.21a0.48,0.48,0,0,1,.19-0.07l0.21,0a0.87,0.87,0,0,1,.24,0l0.23,0.1,0.2,0.13,0.16,0.14L331.63,79a3.93,3.93,0,0,1-1.23.9,3.42,3.42,0,0,1-1.48.33,3.46,3.46,0,0,1-1.39-.28,3.65,3.65,0,0,1-1.14-.77,3.59,3.59,0,0,1-.77-1.14,3.56,3.56,0,0,1,0-2.79,3.61,3.61,0,0,1,.77-1.14,3.67,3.67,0,0,1,1.14-.77,3.46,3.46,0,0,1,1.39-.28,3.4,3.4,0,0,1,1.48.33,4.08,4.08,0,0,1,1.23.9l-0.26.26a1.36,1.36,0,0,1-.41.28,1.19,1.19,0,0,1-.49.11h-0.19a0.56,0.56,0,0,1-.17-0.06,6.11,6.11,0,0,0-.59-0.19,2.37,2.37,0,0,0-.6-0.09" transform="translate(-13.15 -12.48)"/><path class="cls-2" d="M332.64,71.38a0.93,0.93,0,0,1,.08-0.39,1,1,0,0,1,.21-0.31,1.08,1.08,0,0,1,.32-0.21,1,1,0,0,1,.39-0.08,0.93,0.93,0,0,1,.39.08,1.1,1.1,0,0,1,.32.21,1,1,0,0,1,.21.31,1,1,0,0,1,0,.77,1,1,0,0,1-.21.31,1,1,0,0,1-.7.29,1,1,0,0,1-.39-0.08,1,1,0,0,1-.32-0.21,1.06,1.06,0,0,1-.21-0.31,0.93,0.93,0,0,1-.08-0.38m1.75,1.85v6.89h-1.53V73.23h1.53Z" transform="translate(-13.15 -12.48)"/><path class="cls-2" d="M337.49,76.63a2,2,0,0,0,.16.81,2.1,2.1,0,0,0,.45.66,2.16,2.16,0,0,0,.66.44,2.05,2.05,0,0,0,1.61,0A2.15,2.15,0,0,0,341,78.1a2.1,2.1,0,0,0,.45-0.66,2.12,2.12,0,0,0,0-1.62,2.09,2.09,0,0,0-1.11-1.11,2.06,2.06,0,0,0-1.61,0,2.13,2.13,0,0,0-.66.44,2.1,2.1,0,0,0-.45.66,2,2,0,0,0-.16.81m-1.5,0a3.5,3.5,0,0,1,.28-1.4,3.67,3.67,0,0,1,.77-1.14,3.61,3.61,0,0,1,1.14-.77,3.55,3.55,0,0,1,2.78,0,3.61,3.61,0,0,1,1.14.77,3.68,3.68,0,0,1,.77,1.14,3.61,3.61,0,0,1,0,2.79,3.7,3.7,0,0,1-.77,1.15,3.65,3.65,0,0,1-1.14.77,3.55,3.55,0,0,1-2.78,0,3.64,3.64,0,0,1-1.14-.77,3.68,3.68,0,0,1-.77-1.15A3.49,3.49,0,0,1,336,76.63Z" transform="translate(-13.15 -12.48)"/><path class="cls-2" d="M344.07,78.68l0.25-.13,0.25-.13,0.26-.1a0.89,0.89,0,0,1,.27,0,0.65,0.65,0,0,1,.32.07,2.51,2.51,0,0,1,.35.21,1.22,1.22,0,0,0,.31.16,1.08,1.08,0,0,0,.37.06,1.14,1.14,0,0,0,.34-0.05,1,1,0,0,0,.31-0.16,0.81,0.81,0,0,0,.22-0.26A0.71,0.71,0,0,0,347.4,78a0.67,0.67,0,0,0,0-.27,0.55,0.55,0,0,0-.18-0.21,1.62,1.62,0,0,0-.33-0.19l-0.53-.2a7.74,7.74,0,0,1-.73-0.29,2.78,2.78,0,0,1-.64-0.4,1.86,1.86,0,0,1-.46-0.58,1.78,1.78,0,0,1-.17-0.82,1.62,1.62,0,0,1,.19-0.77,2.12,2.12,0,0,1,.5-0.62,2.42,2.42,0,0,1,.7-0.41,2.29,2.29,0,0,1,.81-0.15,1.92,1.92,0,0,1,.77.15,3.14,3.14,0,0,1,.61.34,2.79,2.79,0,0,1,.42.37l0.19,0.22-0.27.24-0.24.18a1,1,0,0,1-.24.12,0.86,0.86,0,0,1-.28,0,0.6,0.6,0,0,1-.21,0l-0.21-.09-0.24-.09a0.77,0.77,0,0,0-.27,0,0.82,0.82,0,0,0-.32.06,0.85,0.85,0,0,0-.24.15,0.6,0.6,0,0,0-.15.19,0.4,0.4,0,0,0,0,.17,0.46,0.46,0,0,0,.09.28,0.78,0.78,0,0,0,.22.2,1.62,1.62,0,0,0,.31.14l0.35,0.11a8,8,0,0,1,.8.29,2.69,2.69,0,0,1,.68.41,1.84,1.84,0,0,1,.47.6,1.93,1.93,0,0,1,.18.87,2.15,2.15,0,0,1-.18.87,2.27,2.27,0,0,1-.5.72,2.46,2.46,0,0,1-.77.5,2.56,2.56,0,0,1-1,.18,2.47,2.47,0,0,1-.72-0.11,2.65,2.65,0,0,1-.66-0.3,2.79,2.79,0,0,1-.57-0.48,2.89,2.89,0,0,1-.44-0.64" transform="translate(-13.15 -12.48)"/><path class="cls-2" d="M357.46,74.56a1.89,1.89,0,0,0-1.4.61,2,2,0,0,0-.4.66,2.26,2.26,0,0,0-.14.81,2.29,2.29,0,0,0,.14.82,2,2,0,0,0,.4.66,1.85,1.85,0,0,0,.62.44,1.88,1.88,0,0,0,.79.16,2.29,2.29,0,0,0,.88-0.18,2.35,2.35,0,0,0,.75-0.48V75.22a2.33,2.33,0,0,0-.75-0.48,2.28,2.28,0,0,0-.88-0.18m3.15,5.56h-1.27l0,0L359.26,80l-0.07-.16a0.63,0.63,0,0,1,0-.19,2,2,0,0,1-.82.48,3.13,3.13,0,0,1-.87.13,3.35,3.35,0,0,1-1.37-.28A3.46,3.46,0,0,1,354.26,78a3.82,3.82,0,0,1,0-2.79,3.44,3.44,0,0,1,1.83-1.91,3.34,3.34,0,0,1,1.37-.28,2.92,2.92,0,0,1,.84.13,2.08,2.08,0,0,1,.79.47V70.59h1.53v9.53Z" transform="translate(-13.15 -12.48)"/><path class="cls-2" d="M367.52,75.7a2,2,0,0,0-.28-0.45,1.91,1.91,0,0,0-.42-0.38,2.15,2.15,0,0,0-.54-0.27,2,2,0,0,0-.65-0.1,2,2,0,0,0-.71.12,2.1,2.1,0,0,0-.58.31,1.93,1.93,0,0,0-.43.45,1.82,1.82,0,0,0-.26.52,0.59,0.59,0,0,1,.14-0.12,0.43,0.43,0,0,1,.26-0.07h3.47Zm1.6,0.35a1,1,0,0,1-.1.45,1.08,1.08,0,0,1-.25.33,1.12,1.12,0,0,1-.33.2,1,1,0,0,1-.34.07h-4.5a1.8,1.8,0,0,0,.22.61,2.17,2.17,0,0,0,.43.54,2.07,2.07,0,0,0,.61.39,1.84,1.84,0,0,0,.75.15,2.1,2.1,0,0,0,.54-0.07,2.06,2.06,0,0,0,.48-0.2,1.14,1.14,0,0,1,.58-0.16,1,1,0,0,1,.42.09,1.22,1.22,0,0,1,.36.25L368.33,79a3.8,3.8,0,0,1-1.23.89,3.56,3.56,0,0,1-1.48.32,3.48,3.48,0,0,1-1.39-.28A3.61,3.61,0,0,1,362.31,78a3.57,3.57,0,0,1,0-2.79,3.6,3.6,0,0,1,.77-1.14,3.66,3.66,0,0,1,1.14-.77,3.48,3.48,0,0,1,1.39-.28,3.4,3.4,0,0,1,1.18.21,3.71,3.71,0,0,1,1,.56,3.62,3.62,0,0,1,.79.85,3.54,3.54,0,0,1,.48,1.06,0.56,0.56,0,0,1,0,.17C369.12,76,369.12,76,369.12,76.05Z" transform="translate(-13.15 -12.48)"/><path class="cls-2" d="M377.43,72a1.78,1.78,0,0,0-.52.07,1.49,1.49,0,0,0-.44.2,1,1,0,0,0-.3.31,0.77,0.77,0,0,0-.11.4,0.91,0.91,0,0,0,.12.5,1,1,0,0,0,.38.33,4.61,4.61,0,0,0,.68.29l1,0.37a5.59,5.59,0,0,1,.94.45,2.93,2.93,0,0,1,.7.59,2.45,2.45,0,0,1,.44.75,2.83,2.83,0,0,1-.12,2.13,3,3,0,0,1-.73.94,3.36,3.36,0,0,1-1.06.61,3.72,3.72,0,0,1-1.26.21,3.46,3.46,0,0,1-1.25-.22,3.11,3.11,0,0,1-1-.63,3,3,0,0,1-.51-0.6,4.83,4.83,0,0,1-.28-0.51l0.24-.13,0.23-.12,0.23-.08a1,1,0,0,1,.26,0,1.27,1.27,0,0,1,.42.07,1.13,1.13,0,0,1,.36.2l0.05,0a3.28,3.28,0,0,0,.57.34,1.69,1.69,0,0,0,.7.14,2.17,2.17,0,0,0,.62-0.09,2,2,0,0,0,.58-0.28,1.56,1.56,0,0,0,.44-0.46,1.15,1.15,0,0,0,.17-0.62,1,1,0,0,0-.16-0.57,1.46,1.46,0,0,0-.42-0.38A3.06,3.06,0,0,0,377.8,76l-0.65-.24-1-.4a3.75,3.75,0,0,1-.84-0.51,2.2,2.2,0,0,1-.82-1.82,2.25,2.25,0,0,1,.25-1.07,2.56,2.56,0,0,1,.65-0.79,2.93,2.93,0,0,1,.93-0.49,3.43,3.43,0,0,1,1.07-.17,2.39,2.39,0,0,1,.79.14,3.77,3.77,0,0,1,.73.35,4.16,4.16,0,0,1,.63.47,4.61,4.61,0,0,1,.48.5l-0.34.26a1.14,1.14,0,0,1-.39.23,1.23,1.23,0,0,1-.42.08,0.9,0.9,0,0,1-.4-0.09l-0.56-.27a1.17,1.17,0,0,0-.52-0.13" transform="translate(-13.15 -12.48)"/><path class="cls-2" d="M384,78.82a3.27,3.27,0,0,0,.93-0.15,4.5,4.5,0,0,0,1-.41V77.19h-1.08a4.14,4.14,0,0,0-.69.05,2.09,2.09,0,0,0-.56.16,1,1,0,0,0-.37.28,0.6,0.6,0,0,0-.14.4,0.67,0.67,0,0,0,.26.58,1.11,1.11,0,0,0,.68.19m-1.94-4.57a2,2,0,0,1,.18-0.23l0.22-.22a2.13,2.13,0,0,1,.29-0.23,3.4,3.4,0,0,1,.86-0.39,3.57,3.57,0,0,1,1-.14,3.34,3.34,0,0,1,1,.14,2.25,2.25,0,0,1,.74.39,2.18,2.18,0,0,1,.51.59,3.11,3.11,0,0,1,.31.74,4.68,4.68,0,0,1,.15.84c0,0.29,0,.59,0,0.89v3.48h-1.25a0.82,0.82,0,0,1-.15-0.29A1.11,1.11,0,0,1,386,79.5a2.51,2.51,0,0,1-.44.29A4.06,4.06,0,0,1,385,80a3.64,3.64,0,0,1-.53.14,2.57,2.57,0,0,1-.47.05,3,3,0,0,1-1-.15,2.29,2.29,0,0,1-.77-0.44,2,2,0,0,1-.5-0.68,2.1,2.1,0,0,1-.18-0.88,2.18,2.18,0,0,1,.21-1,1.93,1.93,0,0,1,.62-0.72,3,3,0,0,1,1-.46,5.89,5.89,0,0,1,1.46-.16h0.34l0.29,0,0.22,0,0.12,0a2.24,2.24,0,0,0-.13-0.64,1.2,1.2,0,0,0-.26-0.43,1,1,0,0,0-.38-0.24,1.48,1.48,0,0,0-.47-0.07,1.87,1.87,0,0,0-.5.05,2,2,0,0,0-.33.11l-0.27.11a1,1,0,0,1-.34.05,1,1,0,0,1-.36-0.07,1.58,1.58,0,0,1-.33-0.18Z" transform="translate(-13.15 -12.48)"/><rect class="cls-2" x="376.19" y="58.11" width="1.53" height="9.53"/><path class="cls-2" d="M397.51,80.12a0.71,0.71,0,0,1-.13-0.25,1.3,1.3,0,0,1-.07-0.45,1.42,1.42,0,0,1-.34.35,2.19,2.19,0,0,1-.45.25,2.51,2.51,0,0,1-.52.15,3.46,3.46,0,0,1-.56,0,2.64,2.64,0,0,1-1.09-.22,2.36,2.36,0,0,1-.84-0.63,2.86,2.86,0,0,1-.54-1,4.12,4.12,0,0,1-.19-1.29v-4h1.53v3.92a3.18,3.18,0,0,0,.07.68,1.57,1.57,0,0,0,.21.52,1,1,0,0,0,.36.33,1.07,1.07,0,0,0,.52.12,2.72,2.72,0,0,0,.66-0.08,2.13,2.13,0,0,0,.56-0.22,1.38,1.38,0,0,0,.39-0.33,0.72,0.72,0,0,0,.17-0.4V73.14h1.54v7h-1.28Z" transform="translate(-13.15 -12.48)"/><path class="cls-2" d="M403.74,74.56a1.89,1.89,0,0,0-1.4.61,2,2,0,0,0-.4.66,2.26,2.26,0,0,0-.14.81,2.3,2.3,0,0,0,.14.82,2,2,0,0,0,.4.66,1.86,1.86,0,0,0,.62.44,1.87,1.87,0,0,0,.79.16,2.29,2.29,0,0,0,.88-0.18,2.36,2.36,0,0,0,.75-0.48V75.22a2.34,2.34,0,0,0-.75-0.48,2.28,2.28,0,0,0-.88-0.18m3.15,5.56h-1.27l0,0L405.54,80l-0.07-.16a0.63,0.63,0,0,1,0-.19,2,2,0,0,1-.82.48,3.13,3.13,0,0,1-.87.13,3.35,3.35,0,0,1-1.37-.28,3.42,3.42,0,0,1-1.1-.77,3.45,3.45,0,0,1-.73-1.14,3.82,3.82,0,0,1,0-2.79,3.44,3.44,0,0,1,1.83-1.91,3.34,3.34,0,0,1,1.37-.28,2.92,2.92,0,0,1,.84.13,2.08,2.08,0,0,1,.79.47V70.59h1.53v9.53Z" transform="translate(-13.15 -12.48)"/><path class="cls-2" d="M415.87,74.56a1.89,1.89,0,0,0-1.4.61,2,2,0,0,0-.4.66,2.26,2.26,0,0,0-.14.81,2.29,2.29,0,0,0,.14.82,2,2,0,0,0,.4.66,1.86,1.86,0,0,0,.62.44,1.88,1.88,0,0,0,.79.16,2.29,2.29,0,0,0,.88-0.18,2.35,2.35,0,0,0,.75-0.48V75.22a2.34,2.34,0,0,0-.75-0.48,2.28,2.28,0,0,0-.88-0.18M419,80.12h-1.27l0,0L417.67,80l-0.07-.16a0.63,0.63,0,0,1,0-.19,2,2,0,0,1-.82.48,3.13,3.13,0,0,1-.87.13,3.35,3.35,0,0,1-1.37-.28,3.42,3.42,0,0,1-1.1-.77,3.46,3.46,0,0,1-.73-1.14,3.82,3.82,0,0,1,0-2.79,3.51,3.51,0,0,1,.73-1.14,3.47,3.47,0,0,1,1.1-.77,3.34,3.34,0,0,1,1.37-.28,2.92,2.92,0,0,1,.84.13,2.08,2.08,0,0,1,.79.47V70.59H419v9.53Z" transform="translate(-13.15 -12.48)"/><path class="cls-2" d="M425.93,75.7a2,2,0,0,0-.28-0.45,1.91,1.91,0,0,0-.42-0.38,2.15,2.15,0,0,0-.54-0.27,2,2,0,0,0-.65-0.1,2,2,0,0,0-.71.12,2.1,2.1,0,0,0-.58.31,1.93,1.93,0,0,0-.43.45,1.81,1.81,0,0,0-.26.52,0.59,0.59,0,0,1,.14-0.12,0.44,0.44,0,0,1,.26-0.07h3.47Zm1.6,0.35a1,1,0,0,1-.1.45,1.08,1.08,0,0,1-.25.33,1.11,1.11,0,0,1-.33.2,1,1,0,0,1-.34.07H422a1.79,1.79,0,0,0,.22.61,2.17,2.17,0,0,0,.43.54,2.07,2.07,0,0,0,.61.39,1.84,1.84,0,0,0,.75.15,2.11,2.11,0,0,0,.54-0.07,2.06,2.06,0,0,0,.48-0.2,1.14,1.14,0,0,1,.59-0.16,1,1,0,0,1,.42.09,1.22,1.22,0,0,1,.36.25L426.73,79a3.8,3.8,0,0,1-1.23.89,3.56,3.56,0,0,1-1.48.32,3.48,3.48,0,0,1-1.39-.28A3.6,3.6,0,0,1,420.72,78a3.57,3.57,0,0,1,0-2.79,3.59,3.59,0,0,1,.77-1.14,3.66,3.66,0,0,1,1.14-.77A3.48,3.48,0,0,1,424,73a3.4,3.4,0,0,1,1.18.21,3.71,3.71,0,0,1,1,.56,3.62,3.62,0,0,1,.79.85,3.56,3.56,0,0,1,.48,1.06,0.57,0.57,0,0,1,0,.17C427.52,76,427.53,76,427.53,76.05Z" transform="translate(-13.15 -12.48)"/><rect class="cls-2" x="415.97" y="58.11" width="1.53" height="9.53"/><polygon class="cls-2" points="429.86 67.64 423.86 67.64 423.86 58.11 429.86 58.11 429.86 59.62 425.39 59.62 425.39 62.09 429.01 62.09 429.01 63.59 425.39 63.59 425.39 66.14 429.86 66.14 429.86 67.64"/><path class="cls-2" d="M444.13,78.68l0.25-.13,0.25-.13,0.26-.1a0.89,0.89,0,0,1,.27,0,0.65,0.65,0,0,1,.32.07,2.52,2.52,0,0,1,.35.21,1.21,1.21,0,0,0,.31.16,1.08,1.08,0,0,0,.37.06,1.14,1.14,0,0,0,.34-0.05,1,1,0,0,0,.31-0.16,0.8,0.8,0,0,0,.22-0.26,0.71,0.71,0,0,0,.09-0.35,0.67,0.67,0,0,0,0-.27,0.56,0.56,0,0,0-.18-0.21,1.61,1.61,0,0,0-.33-0.19l-0.52-.2a7.75,7.75,0,0,1-.73-0.29,2.78,2.78,0,0,1-.64-0.4,1.86,1.86,0,0,1-.46-0.58,1.78,1.78,0,0,1-.17-0.82,1.62,1.62,0,0,1,.19-0.77,2.12,2.12,0,0,1,.5-0.62,2.43,2.43,0,0,1,.7-0.41,2.28,2.28,0,0,1,.81-0.15,1.91,1.91,0,0,1,.77.15,3.14,3.14,0,0,1,.61.34,2.79,2.79,0,0,1,.42.37l0.19,0.22-0.27.24-0.24.18a1,1,0,0,1-.24.12,0.86,0.86,0,0,1-.28,0,0.6,0.6,0,0,1-.21,0l-0.21-.09-0.24-.09a0.77,0.77,0,0,0-.27,0,0.82,0.82,0,0,0-.32.06,0.86,0.86,0,0,0-.24.15,0.61,0.61,0,0,0-.15.19,0.4,0.4,0,0,0,0,.17,0.46,0.46,0,0,0,.09.28,0.78,0.78,0,0,0,.22.2,1.62,1.62,0,0,0,.31.14l0.35,0.11a8,8,0,0,1,.8.29,2.69,2.69,0,0,1,.68.41,1.84,1.84,0,0,1,.47.6,1.94,1.94,0,0,1,.18.87,2.15,2.15,0,0,1-.18.87,2.27,2.27,0,0,1-.5.72,2.47,2.47,0,0,1-.77.5,2.56,2.56,0,0,1-1,.18,2.47,2.47,0,0,1-.72-0.11,2.64,2.64,0,0,1-.66-0.3,2.79,2.79,0,0,1-.57-0.48,2.88,2.88,0,0,1-.44-0.64" transform="translate(-13.15 -12.48)"/><path class="cls-2" d="M452.31,74.64v3.58a0.64,0.64,0,0,0,.11.37,0.35,0.35,0,0,0,.31.16,1.08,1.08,0,0,0,.3,0,1,1,0,0,1,.26,0,0.88,0.88,0,0,1,.39.08A1.33,1.33,0,0,1,454,79a1.66,1.66,0,0,1,.24.27l0.18,0.27a1.79,1.79,0,0,1-.36.27,3.61,3.61,0,0,1-.47.23,3.42,3.42,0,0,1-.49.16,1.79,1.79,0,0,1-.43.06,2.06,2.06,0,0,1-.78-0.14,1.65,1.65,0,0,1-1-1,2.23,2.23,0,0,1-.13-0.77V74.64h-1.12V73.73a0.46,0.46,0,0,1,.08-0.27,0.51,0.51,0,0,1,.21-0.17,1.08,1.08,0,0,1,.3-0.08l0.37,0h0.17V71.72a1.47,1.47,0,0,1,.06-0.42A1.86,1.86,0,0,1,451,71a1.55,1.55,0,0,1,.19-0.29h1.17v2.5h1.86v1.46h-1.86Z" transform="translate(-13.15 -12.48)"/><path class="cls-2" d="M457.62,78.82a3.27,3.27,0,0,0,.93-0.15,4.5,4.5,0,0,0,1-.41V77.19h-1.08a4.14,4.14,0,0,0-.69.05,2.09,2.09,0,0,0-.56.16,1,1,0,0,0-.37.28,0.6,0.6,0,0,0-.14.4,0.68,0.68,0,0,0,.26.58,1.11,1.11,0,0,0,.68.19m-1.94-4.57a2,2,0,0,1,.18-0.23l0.22-.22a2.12,2.12,0,0,1,.29-0.23,3.4,3.4,0,0,1,.86-0.39,3.57,3.57,0,0,1,1-.14,3.34,3.34,0,0,1,1,.14,2.26,2.26,0,0,1,.74.39,2.2,2.2,0,0,1,.51.59,3.14,3.14,0,0,1,.31.74,4.67,4.67,0,0,1,.15.84c0,0.29,0,.59,0,0.89v3.48h-1.25a0.82,0.82,0,0,1-.15-0.29,1.12,1.12,0,0,1-.05-0.33,2.52,2.52,0,0,1-.44.29,4.08,4.08,0,0,1-.51.23,3.64,3.64,0,0,1-.53.14,2.57,2.57,0,0,1-.47.05,3,3,0,0,1-1-.15,2.29,2.29,0,0,1-.77-0.44,2,2,0,0,1-.5-0.68,2.1,2.1,0,0,1-.18-0.88,2.18,2.18,0,0,1,.21-1,1.92,1.92,0,0,1,.62-0.72,3,3,0,0,1,1-.46,5.89,5.89,0,0,1,1.46-.16h0.34l0.29,0,0.22,0,0.12,0a2.25,2.25,0,0,0-.13-0.64,1.21,1.21,0,0,0-.26-0.43,1,1,0,0,0-.38-0.24,1.47,1.47,0,0,0-.47-0.07,1.87,1.87,0,0,0-.5.05,2,2,0,0,0-.33.11l-0.27.11a1,1,0,0,1-.34.05,1,1,0,0,1-.36-0.07,1.58,1.58,0,0,1-.33-0.18Z" transform="translate(-13.15 -12.48)"/><path class="cls-2" d="M465.76,74.56a1.89,1.89,0,0,0-1.4.61,2,2,0,0,0-.4.66,2.26,2.26,0,0,0-.14.81,2.3,2.3,0,0,0,.14.82,2,2,0,0,0,.4.66,1.85,1.85,0,0,0,.62.44,1.88,1.88,0,0,0,.79.16,2.29,2.29,0,0,0,.88-0.18,2.35,2.35,0,0,0,.75-0.48V75.22a2.34,2.34,0,0,0-.75-0.48,2.29,2.29,0,0,0-.88-0.18m3.15,5.56h-1.27l0,0L467.56,80l-0.07-.16a0.62,0.62,0,0,1,0-.19,2,2,0,0,1-.82.48,3.13,3.13,0,0,1-.87.13,3.35,3.35,0,0,1-1.37-.28,3.42,3.42,0,0,1-1.1-.77,3.45,3.45,0,0,1-.73-1.14,3.82,3.82,0,0,1,0-2.79,3.5,3.5,0,0,1,.73-1.14,3.46,3.46,0,0,1,1.1-.77,3.34,3.34,0,0,1,1.37-.28,2.92,2.92,0,0,1,.84.13,2.08,2.08,0,0,1,.79.47V70.59h1.53v9.53Z" transform="translate(-13.15 -12.48)"/><path class="cls-2" d="M471.83,76.63a2,2,0,0,0,.16.81,2.1,2.1,0,0,0,.45.66,2.16,2.16,0,0,0,.66.44,2.05,2.05,0,0,0,1.61,0,2.15,2.15,0,0,0,.66-0.44,2.1,2.1,0,0,0,.45-0.66,2.12,2.12,0,0,0,0-1.62,2.09,2.09,0,0,0-1.11-1.11,2.06,2.06,0,0,0-1.61,0,2.13,2.13,0,0,0-.66.44,2.1,2.1,0,0,0-.45.66,2,2,0,0,0-.16.81m-1.5,0a3.5,3.5,0,0,1,.28-1.4,3.67,3.67,0,0,1,.77-1.14,3.61,3.61,0,0,1,1.14-.77,3.55,3.55,0,0,1,2.78,0,3.61,3.61,0,0,1,1.14.77,3.68,3.68,0,0,1,.77,1.14,3.61,3.61,0,0,1,0,2.79,3.7,3.7,0,0,1-.77,1.15,3.65,3.65,0,0,1-1.14.77,3.55,3.55,0,0,1-2.78,0,3.64,3.64,0,0,1-1.14-.77,3.68,3.68,0,0,1-.77-1.15A3.49,3.49,0,0,1,470.32,76.63Z" transform="translate(-13.15 -12.48)"/><line class="cls-3" x1="263.56" y1="37.43" x2="263.56" y2="72.96"/></svg>