<svg xmlns="http://www.w3.org/2000/svg" width="383" height="137" fill="none" class="hero__logo"><g fill="#36487D" clip-path="url(#a)"><path d="M10.25 30.93c0-3.85-.53-6.69-1.59-8.54-1.06-1.85-3.19-2.77-6.38-2.77H0v-2.26h48.54c6.453 0 9.68 3 9.68 9v8.49h-2.28c0-8.667-4.747-13-14.24-13H20.51v29.44h30.76v4.53H20.51v31.67h19.94c5.24 0 9.34-.943 12.3-2.83 2.96-1.887 5.313-5.09 7.06-9.61l2.28.57-4 10.74C56.737 90.12 53.893 92 49.56 92H10.25V30.93Zm81.41 58.26A33.67 33.67 0 0 1 79.3 75.33 43.4 43.4 0 0 1 75 55.82a44.8 44.8 0 0 1 4.7-20.48 37.83 37.83 0 0 1 12.87-14.82 31.32 31.32 0 0 1 17.72-5.43c5.442-.103 10.86.76 16 2.55 4.6 1.687 8 3.853 10.2 6.5 1.383 1.82 2.213 4 2.39 6.28.348 3.552.501 7.12.46 10.69h-2.28c-1.44-7.333-4.106-12.743-8-16.23-3.893-3.487-9.013-5.24-15.36-5.26-8.2 0-14.806 2.863-19.82 8.59-5.013 5.727-7.52 14.93-7.52 27.61a46.842 46.842 0 0 0 2.9 16.63A28.16 28.16 0 0 0 98.32 85c4.1 3.2 9.227 4.803 15.38 4.81a26.34 26.34 0 0 0 14.53-4 36.344 36.344 0 0 0 11.11-11.87l2.28 1.7c-3.5 6.767-7.81 11.553-12.93 14.36-5.12 2.807-11.253 4.22-18.4 4.24a34.06 34.06 0 0 1-18.63-5.05Zm118.66.4c-3.567-2-6.417-5.903-8.55-11.71l-2.85-7.36H167L157.91 92h-5.13l31.9-74.66h3.42l25.06 60.52c1.9 4.373 3.686 7.373 5.36 9a11.569 11.569 0 0 0 7.18 2.89V92a17.47 17.47 0 0 1-4.56.56 21.999 21.999 0 0 1-10.82-2.97ZM168.73 66h27.91L183 33.19 168.73 66ZM297 90.94a6.174 6.174 0 0 1-3-3.9 29.886 29.886 0 0 1-.92-8.6V17.36h10.26v61.08c0 3.853.533 6.7 1.6 8.54 1.05 1.85 3.18 2.78 6.37 2.78h2.28V92h-10.32a14.33 14.33 0 0 1-6.27-1.06Zm35-60.01c0-3.85-.54-6.69-1.6-8.54-1.06-1.85-3.19-2.77-6.38-2.77h-2.28v-2.26H332a14.378 14.378 0 0 1 6.32 1.07 6.308 6.308 0 0 1 3 3.9 29.99 29.99 0 0 1 .91 8.6v56.56h40.45V92H332V30.93Zm-65.53 55.6c-2.24-1.847-4.767-5.107-7.58-9.78l-12-19.8c12.147-2.793 18.223-9.203 18.23-19.23 0-7.92-2.943-13.293-8.83-16.12a44.778 44.778 0 0 0-19.65-4.24h-10.55s-5.8 2.92 1.27 3.42c4.22.3 7.76.53 8.75.53 2.655.068 5.27.667 7.69 1.76a17.672 17.672 0 0 1 7.06 5.43 14.381 14.381 0 0 1 2.91 9.22 13.624 13.624 0 0 1-2.91 8.82 17.309 17.309 0 0 1-7.06 5.32 20.499 20.499 0 0 1-7.69 1.69 35.22 35.22 0 0 1-8.32-1.08v5h7.75l11.39 19.24c3.653 6.18 6.987 10.46 10 12.84a16.5 16.5 0 0 0 10.54 3.56 21.772 21.772 0 0 0 3.93-.34c.993-.156 1.965-.42 2.9-.79v-2.22a14.232 14.232 0 0 1-7.83-3.23ZM199.6 0h-26.62v7.54h26.62V0ZM60.514 134v-21.795h-1.55V134h1.55Zm28.656 0v-21.795h-1.953l-7.95 19.504-7.95-19.504h-2.123V134h1.348v-20.111L78.762 134h.841l8.085-20.111V134h1.483Zm21.761-15.765c0-4.38-2.594-6.03-7.04-6.03h-5.626V134h1.55v-9.533h4.446c4.379 0 6.67-1.954 6.67-6.232Zm-1.617 0c0 3.907-1.785 4.985-5.322 4.985h-4.178v-9.769h4.009c3.537 0 5.491 1.044 5.491 4.784Zm25.812 4.952c0-6.468-1.954-11.319-8.792-11.319-6.637 0-8.961 4.851-8.961 11.319 0 6.467 2.021 11.352 8.927 11.352 6.569 0 8.826-4.885 8.826-11.352Zm-1.617 0c0 5.659-1.415 10.106-7.209 10.106s-7.31-4.447-7.31-10.106c0-5.795 1.516-10.073 7.31-10.073s7.209 4.278 7.209 10.073ZM156.929 134l-7.58-10.106c4.986 0 6.536-2.762 6.536-6.064 0-4.244-3.234-5.625-6.704-5.625h-6.131V134h1.549v-10.072h2.965L155.042 134h1.887Zm-2.661-16.17c0 2.729-1.078 4.851-4.885 4.851h-4.784v-9.23h4.75c3.133 0 4.919 1.415 4.919 4.379Zm22.388-4.345v-1.28h-14.889v1.28h6.67V134h1.549v-20.515h6.67ZM197.518 134l-8.219-21.795h-1.045L179.395 134h1.583l2.695-6.838h9.567l2.527 6.838h1.751Zm-4.682-8.017h-8.691l4.547-11.488 4.144 11.488Zm24.176 7.613-.606-1.415c-1.752.707-3.302 1.112-4.919 1.112-5.457 0-7.006-4.851-7.006-10.208 0-5.053 1.414-9.971 7.209-9.971 1.617 0 3.065.337 4.48.943l.606-1.414c-1.65-.539-3.2-.775-5.086-.775-6.771 0-8.826 5.188-8.826 11.251 0 6.502 2.29 11.42 8.623 11.42 1.921 0 3.605-.27 5.525-.943Zm8.299.404v-21.795h-1.55V134h1.55Zm25.254-10.813c0-6.468-1.954-11.319-8.792-11.319-6.637 0-8.961 4.851-8.961 11.319 0 6.467 2.021 11.352 8.927 11.352 6.569 0 8.826-4.885 8.826-11.352Zm-1.617 0c0 5.659-1.415 10.106-7.209 10.106s-7.31-4.447-7.31-10.106c0-5.795 1.516-10.073 7.31-10.073s7.209 4.278 7.209 10.073ZM273.547 134v-21.795h-1.482v19.976l-11.488-19.976h-2.088V134h1.347v-19.976L271.391 134h2.156Zm21.002 0v-1.246h-10.342v-9.399h9.332v-1.246h-9.332v-8.658h10.039v-1.246h-11.588V134h11.891Zm19.629-5.558c0-4.346-3.368-5.592-6.468-6.67-2.526-.876-4.817-1.819-4.817-4.413 0-3.234 2.426-4.245 5.356-4.245 2.089 0 3.403.573 4.649 1.112l.607-1.415c-1.786-.606-3.571-.943-5.053-.943-4.009 0-7.176 1.482-7.176 5.491 0 3.773 2.931 4.952 5.828 5.962 2.796.977 5.457 1.988 5.457 5.188 0 3.84-3.2 4.784-5.726 4.784-1.786 0-3.335-.506-4.952-1.112l-.607 1.415c1.853.505 3.638.943 5.525.943 4.009 0 7.377-1.449 7.377-6.097Z"/></g><defs><clipPath id="a"><path fill="#fff" d="M0 0h382.68v136.41H0z"/></clipPath></defs></svg>