<?xml version="1.0" encoding="utf-8"?>
<!-- Generator: Adobe Illustrator 24.0.3, SVG Export Plug-In . SVG Version: 6.00 Build 0)  -->
<svg version="1.1" id="Capa_1" xmlns="http://www.w3.org/2000/svg" xmlns:xlink="http://www.w3.org/1999/xlink" x="0px" y="0px"
	 viewBox="0 0 300 38.8" style="enable-background:new 0 0 300 38.8;" xml:space="preserve">
<style type="text/css">
	.st0{fill:#1D1D1B;}
	.st1{fill:#962442;}
	.st2{fill:#FFFFFF;}
</style>
<path class="st0" d="M53.7,23.1c-0.2-0.1-0.2-0.2-0.2-0.3c0-0.2,0.1-0.3,0.3-0.4l0.4-0.1c0.7-0.1,1.3-0.3,1.8-0.7
	c0.4-0.4,0.7-0.9,0.6-1.5v-14c0-0.4,0-0.7-0.2-1.1c-0.1-0.2-0.3-0.4-0.5-0.5c-0.4-0.1-0.8-0.2-1.1-0.3c-0.7-0.1-1-0.3-1-0.6
	c0-0.1,0.1-0.2,0.2-0.2c0.2-0.1,0.4-0.1,0.6-0.1c0.5,0,1,0,1.3,0h1h2.4h1.1c0.4,0,0.8,0,1.4,0c0.2,0,0.4,0,0.6,0.1
	c0.2,0,0.2,0.1,0.2,0.2c0,0.2-0.1,0.3-0.2,0.4c-0.2,0.1-0.5,0.2-0.8,0.2c-0.6,0.1-1.3,0.3-1.9,0.5C59.3,5,59,5.5,59,6v14.2
	c0,0.5,0.1,1,0.4,1.4c0.6,0.4,1.2,0.5,1.9,0.5h3.7c0.5,0,1-0.1,1.4-0.3c0.3-0.1,0.6-0.3,0.9-0.5c0.3-0.3,0.6-0.6,0.9-0.9
	c0.3-0.4,0.5-0.8,0.7-1.2c0.1-0.2,0.2-0.4,0.2-0.5c0.1-0.2,0.3-0.4,0.4-0.4c0.1,0,0.2,0.1,0.3,0.2c0.1,0.1,0.1,0.2,0.1,0.4
	c0,0,0,0,0,0.1c0,0,0,0.1,0,0.1c-0.1,0.5-0.3,1-0.4,1.4s-0.2,0.8-0.3,1.2s-0.1,0.8-0.2,1.2c0,0.1-0.1,0.2-0.1,0.4
	c-0.1,0.1-0.2,0.2-0.3,0.1c-1,0-2,0-2.9,0h-2.7l-2.5,0h-2.3h-1.7c-0.6,0-1.4,0-2.4,0.1C54.2,23.3,53.9,23.2,53.7,23.1z"/>
<path class="st0" d="M73.6,23.2c-0.2,0-0.4,0-0.6-0.1c-0.2,0-0.2-0.1-0.2-0.3s0.3-0.4,1-0.5c0.6-0.1,1.2-0.3,1.8-0.7
	c0.4-0.4,0.7-1,0.6-1.5V6.5C76.2,6,76,5.4,75.7,5c-0.5-0.4-1-0.6-1.6-0.7c-0.7-0.1-1-0.3-1-0.6c0-0.1,0.1-0.2,0.2-0.2
	c0.2-0.1,0.4-0.1,0.7,0c0.6,0,1,0,1.3,0h1h2.3h0.9c0.3,0,0.8,0,1.3,0c0.2,0,0.4,0,0.6,0.1c0.2,0,0.2,0.1,0.2,0.2
	c0,0.2-0.1,0.3-0.2,0.4c-0.2,0.1-0.5,0.2-0.8,0.2C80.1,4.4,79.5,4.6,79,5c-0.4,0.4-0.6,0.9-0.5,1.5v13.6c-0.1,0.6,0.2,1.2,0.6,1.5
	c0.5,0.4,1.1,0.6,1.8,0.7c0.3,0,0.5,0.1,0.8,0.2c0.1,0.1,0.2,0.2,0.2,0.3c0,0.1-0.1,0.2-0.2,0.3c-0.2,0.1-0.4,0.1-0.6,0.1
	c-0.5,0-1,0-1.3,0l-1-0.1c-0.3,0-0.7,0-1.2,0c-0.5,0-0.9,0-1.3,0l-1.2,0C74.7,23.2,74.2,23.2,73.6,23.2z"/>
<path class="st0" d="M94.8,23.5c-1.4,0-2.7-0.2-4-0.7c-1.2-0.5-2.4-1.2-3.3-2.1c-1-0.9-1.7-1.9-2.3-3.1c-0.6-1.2-0.9-2.5-0.8-3.9
	c0-1.4,0.3-2.9,0.9-4.2c0.6-1.3,1.4-2.4,2.5-3.4c1-0.9,2.2-1.7,3.5-2.2c1.4-0.6,2.8-0.8,4.3-0.8c0.5,0,0.9,0,1.4,0.1
	c0.6,0.1,1.2,0.2,1.8,0.2s1.2,0.2,1.7,0.3c0.4,0.1,0.7,0.2,1.1,0.3c0.1,0,0.1,0.1,0.2,0.1c0,0.1,0.1,0.1,0.1,0.2
	c0.1,0.6,0.2,1.2,0.2,1.7c0,0.5,0.1,0.9,0.1,1.4c0,0.1-0.1,0.3-0.1,0.4c-0.1,0.1-0.2,0.2-0.3,0.2c-0.2,0-0.4-0.1-0.5-0.3
	c-0.1-0.2-0.2-0.4-0.2-0.5c-0.1-0.3-0.2-0.6-0.4-0.8c-0.2-0.3-0.3-0.5-0.6-0.8c-0.2-0.2-0.5-0.5-0.8-0.6c-0.5-0.3-1-0.5-1.6-0.7
	c-0.8-0.2-1.6-0.3-2.4-0.3C94.1,4.3,93,4.5,92,5c-1,0.5-1.8,1.2-2.5,2c-0.7,0.9-1.2,1.9-1.6,2.9c-0.4,1.1-0.6,2.2-0.6,3.4
	c0,1.3,0.2,2.6,0.6,3.8c0.4,1.1,1,2,1.8,2.8c0.7,0.8,1.6,1.4,2.5,1.8c0.9,0.4,1.9,0.6,2.9,0.6c0.9,0.1,1.8-0.1,2.6-0.4
	c0.4-0.2,0.8-0.4,1.1-0.7c0.3-0.3,0.5-0.6,0.6-0.9c0.2-0.4,0.3-0.9,0.3-1.4c0-0.2,0-0.4,0-0.6v-0.6c0-0.2,0-0.4,0-0.6
	c0-0.2,0-0.4,0-0.5c0-0.1-0.1-0.2-0.1-0.4c-0.2-0.3-0.5-0.4-0.8-0.5c-0.4-0.1-0.8-0.2-1.2-0.3c-0.3-0.1-0.6-0.1-0.9-0.1
	c-0.1,0-0.3-0.1-0.4-0.1c-0.1-0.1-0.2-0.2-0.2-0.4c0-0.2,0.1-0.3,0.2-0.4c0.1-0.1,0.2-0.1,0.4-0.1c0.5,0,0.9,0,1.3,0l1.1,0.1
	c0.4,0,0.8,0,1.4,0c0.4,0,0.9,0,1.3-0.1c0.4,0,0.9-0.1,1.3-0.1c0.1,0,0.3,0,0.4,0.1c0.2,0.1,0.3,0.2,0.2,0.4c0,0.2-0.1,0.3-0.2,0.4
	c-0.1,0.1-0.2,0.1-0.4,0.2c-0.4,0.1-0.7,0.3-0.9,0.5c-0.2,0.3-0.3,0.6-0.3,0.9c-0.1,0.4-0.1,0.8-0.1,1.2c0,0.4,0,0.7,0,1.1v0.8
	c0,0.1,0,0.2,0.1,0.2c0,0.1,0.1,0.2,0.1,0.2c0.1,0.1,0.1,0.2,0.2,0.3c0.1,0.1,0.1,0.1,0.2,0.2c0,0.1,0,0.2-0.1,0.3
	c0,0.1-0.2,0.2-0.4,0.3c-0.3,0.1-0.6,0.2-0.8,0.3c-0.4,0.2-0.9,0.5-1.6,0.7c-0.7,0.3-1.4,0.5-2.1,0.7C96.6,23.4,95.7,23.5,94.8,23.5
	z"/>
<path class="st0" d="M116.8,23.5c-1.6,0.1-3.1-0.3-4.5-0.9c-1.2-0.6-2.1-1.5-2.7-2.7c-0.6-1.2-0.9-2.6-0.9-4V6.6
	c0.1-0.6-0.1-1.1-0.4-1.6c-0.3-0.3-0.6-0.5-1-0.6c-0.7-0.2-1-0.4-1-0.7c0-0.1,0.1-0.2,0.2-0.2c0.2-0.1,0.4-0.1,0.6-0.1
	c0.5,0,0.9,0,1.4,0s1,0,1.5,0s0.9,0,1.3,0h1.1c0.2,0,0.4,0,0.6,0.1c0.2,0,0.2,0.1,0.2,0.2c0,0.2-0.1,0.3-0.2,0.3
	c-0.2,0.1-0.5,0.2-0.8,0.3c-0.3,0.1-0.6,0.4-0.8,0.7c-0.3,0.4-0.5,0.9-0.4,1.5V15c-0.1,1.4,0.2,2.8,0.8,4c0.5,1,1.3,1.8,2.2,2.3
	c1,0.5,2.1,0.8,3.3,0.7c1.8,0.1,3.6-0.7,4.6-2.2c1-1.7,1.5-3.7,1.4-5.7c0-0.4,0-1,0-1.7s0-1.5,0-2.3s0-1.6-0.1-2.4
	c0-0.5,0-1-0.1-1.5c-0.1-0.4-0.2-0.8-0.5-1.2c-0.1-0.3-0.4-0.5-0.7-0.6c-0.2-0.1-0.4-0.1-0.7-0.2c-0.2-0.1-0.3-0.2-0.3-0.4
	s0.1-0.2,0.2-0.2c0.2-0.1,0.4-0.1,0.6-0.1h1.1h2h0.8h0.7c0.2,0,0.4,0,0.6,0.1c0.2,0,0.2,0.1,0.2,0.2c0,0.3-0.3,0.5-1,0.6
	c-0.5,0.1-0.9,0.3-1.1,0.8c-0.2,0.5-0.4,1-0.4,1.5c-0.1,1.7-0.2,3.3-0.2,4.7s-0.1,2.8-0.1,4.2c0,1.4-0.4,2.9-1.1,4.1
	c-0.7,1.2-1.6,2.1-2.8,2.8C119.6,23.2,118.2,23.5,116.8,23.5z"/>
<path class="st0" d="M140,23.5c-1.3,0-2.6-0.2-3.8-0.7c-1.2-0.5-2.3-1.1-3.2-2c-0.9-0.9-1.7-2-2.2-3.1c-0.6-1.3-0.8-2.7-0.8-4
	c0-1.3,0.2-2.7,0.7-3.9c0.4-1.2,1.1-2.4,2-3.4c0.9-1,2-1.8,3.2-2.3c2.6-1.1,5.6-1.2,8.2-0.2c1.2,0.5,2.3,1.1,3.2,2
	c2,1.9,3.1,4.5,3,7.2c0,1.3-0.2,2.7-0.7,3.9c-0.4,1.2-1.1,2.4-2,3.4c-0.9,1-2,1.8-3.2,2.4C143,23.2,141.5,23.5,140,23.5z
	 M140.4,22.3c1.4,0,2.7-0.3,3.9-1c1-0.7,1.8-1.6,2.3-2.7c0.5-1.3,0.8-2.7,0.8-4.1c0-1.3-0.2-2.6-0.5-3.9c-0.3-1.2-0.8-2.2-1.4-3.2
	c-1.2-1.9-3.4-3.1-5.7-3c-1.3,0-2.6,0.3-3.8,1c-1,0.6-1.8,1.6-2.3,2.7c-0.5,1.3-0.8,2.7-0.8,4.1c0,1.3,0.1,2.7,0.5,4
	c0.3,1.2,0.8,2.3,1.4,3.2c0.6,0.9,1.4,1.7,2.4,2.2C138.2,22.1,139.3,22.3,140.4,22.3z"/>
<path class="st0" d="M171.4,23.7c-0.5,0-1.1,0-1.6-0.1c-0.5-0.1-1-0.3-1.4-0.5c-0.4-0.3-0.8-0.6-1.2-1c-0.5-0.6-0.9-1.2-1.4-1.7
	s-0.9-1.2-1.4-1.9s-1.1-1.6-1.8-2.8c-0.3-0.5-0.8-0.9-1.3-1.2c-0.4-0.2-0.9-0.4-1.3-0.5c-0.4-0.1-0.7-0.1-1.1-0.2
	c-0.1,0-0.3,0-0.4,0.1c-0.1,0.1-0.1,0.3-0.1,0.4v5.3c0,0.6,0.1,1.2,0.4,1.7c0.4,0.5,0.9,0.9,1.6,0.9c0.3,0,0.5,0.1,0.8,0.2
	c0.1,0.1,0.2,0.2,0.2,0.3c0,0.1-0.1,0.2-0.2,0.3c-0.2,0.1-0.4,0.1-0.6,0.1c-0.4,0-0.8,0-1.2-0.1l-0.8-0.1c-0.3,0-0.6,0-0.9,0
	c-0.5,0-1,0-1.3,0l-1.2,0.1c-0.4,0-0.9,0.1-1.4,0.1c-0.2,0-0.4,0-0.6-0.1c-0.2,0-0.2-0.1-0.2-0.3s0.3-0.4,1-0.5
	c0.6-0.1,1.2-0.3,1.7-0.7c0.4-0.4,0.6-1,0.5-1.6V7.3c0-0.6,0-1.2-0.1-1.7c0-0.3-0.2-0.6-0.5-0.8c-0.4-0.2-0.8-0.3-1.2-0.3
	c-0.3,0-0.5-0.1-0.8-0.2c-0.1-0.1-0.2-0.2-0.2-0.4c0-0.1,0.1-0.2,0.2-0.2c0.2-0.1,0.4-0.1,0.6-0.1h1.2h0.8h1c0.4,0,0.7,0,1,0
	s0.6-0.1,1-0.1s0.8,0,1.4,0c1.8-0.1,3.5,0.3,5,1.2c1.2,0.9,1.8,2.3,1.7,3.7c0,0.8-0.2,1.6-0.5,2.3c-0.3,0.6-0.8,1.2-1.4,1.6
	c-0.5,0.4-1.1,0.8-1.6,1.1c-0.1,0-0.1,0.1-0.1,0.1c0,0.1,0.1,0.2,0.1,0.3c0.6,0.9,1.2,1.8,1.8,2.7c0.6,0.9,1.2,1.7,1.9,2.5
	c0.8,0.9,1.6,1.7,2.4,2.5c0.4,0.4,1,0.7,1.6,0.8c0.6,0.1,1.2,0.2,1.9,0.1c0.3,0,0.4,0.1,0.4,0.3c0,0.3-0.2,0.6-0.4,0.7
	c-0.3,0.2-0.7,0.3-1,0.3C172,23.7,171.7,23.7,171.4,23.7z M160.1,13.2c0.8,0,1.7-0.2,2.4-0.6c1.3-0.8,2.1-2.3,2.1-3.8
	c0-0.8-0.1-1.5-0.3-2.3c-0.2-0.7-0.7-1.3-1.3-1.6c-0.9-0.5-1.9-0.7-2.9-0.6c-0.5-0.1-1,0.2-1.3,0.6c-0.3,0.7-0.4,1.4-0.4,2.2
	c0,0.5,0,1.2-0.1,2s0,1.9,0,3.1c0,0.5,0.1,0.8,0.4,0.9C159.3,13.1,159.7,13.2,160.1,13.2z"/>
<path class="st0" d="M177.7,23.2c-0.2,0-0.4,0-0.6-0.1c-0.2,0-0.2-0.1-0.2-0.3s0.3-0.4,1-0.5c0.6-0.1,1.2-0.3,1.7-0.7
	c0.4-0.4,0.7-1,0.6-1.5V6.5c0-0.5-0.1-1.1-0.4-1.5c-0.5-0.4-1-0.6-1.6-0.7c-0.7-0.1-1-0.3-1-0.6c0-0.1,0.1-0.2,0.2-0.2
	c0.2-0.1,0.4-0.1,0.6-0.1c0.5,0,1,0,1.3,0h1h2.2h0.9c0.3,0,0.8,0,1.3,0c0.2,0,0.4,0,0.6,0.1c0.2,0,0.2,0.1,0.2,0.2
	c0,0.2-0.1,0.3-0.2,0.4c-0.2,0.1-0.5,0.2-0.8,0.2c-0.6,0.1-1.1,0.3-1.6,0.7c-0.4,0.4-0.6,0.9-0.5,1.5v13.6c0,0.6,0.2,1.2,0.6,1.5
	c0.5,0.4,1.1,0.6,1.7,0.7c0.3,0,0.5,0.1,0.8,0.2c0.1,0.1,0.2,0.2,0.2,0.3c0,0.1-0.1,0.2-0.2,0.3c-0.2,0.1-0.4,0.1-0.6,0.1
	c-0.5,0-1,0-1.3,0l-1-0.1c-0.3,0-0.7,0-1.2,0c-0.5,0-0.9,0-1.3,0l-1.1,0.1C178.7,23.2,178.2,23.2,177.7,23.2z"/>
<path class="st0" d="M210.4,23.3l-1.3-0.1c-0.7,0-1.5-0.1-2.4-0.1s-1.7,0-2.5,0c-0.4,0-0.7,0-1,0l-0.9,0.1c-0.3,0-0.7,0-1.3,0
	c-0.2,0-0.4,0-0.6-0.1c-0.1,0-0.2-0.2-0.2-0.3c0-0.1,0.1-0.3,0.2-0.3c0.2-0.1,0.5-0.1,0.8-0.2c0.6-0.1,1.1-0.3,1.6-0.7
	c0.3-0.5,0.5-1,0.4-1.6V6.6c0.1-0.6-0.1-1.1-0.5-1.6c-0.5-0.4-1-0.6-1.6-0.7c-0.3,0-0.5-0.1-0.8-0.2c-0.1,0-0.2-0.2-0.2-0.3
	c0-0.1,0.1-0.3,0.2-0.3c0.2-0.1,0.4-0.1,0.6-0.1h1.2h0.9h1.2h1.2l1.5-0.1l1.4-0.1h0.9c1.8,0,3.5,0.2,5.2,0.7c1.3,0.4,2.5,1.1,3.5,2
	c0.9,0.8,1.6,1.9,2,3c0.4,1.2,0.7,2.5,0.6,3.7c0,1.4-0.3,2.8-0.8,4.1c-0.5,1.3-1.3,2.4-2.3,3.4c-1,1-2.1,1.7-3.3,2.3
	C213.2,23,211.8,23.3,210.4,23.3z M210.1,22.2c1.5,0,2.9-0.4,4.2-1.1c1.2-0.8,2.2-1.9,2.8-3.2c0.7-1.4,1-3,1-4.6
	c0-1.3-0.2-2.6-0.7-3.9c-0.9-2.1-2.5-3.8-4.6-4.6c-1-0.4-2-0.6-3-0.6c-0.9,0-1.6,0-2.2,0.1c-0.5,0-1,0.2-1.4,0.5
	c-0.3,0.3-0.5,0.8-0.5,1.3v13.4c-0.1,0.7,0.2,1.3,0.7,1.8c0.5,0.4,1.1,0.7,1.7,0.8C208.6,22.2,209.3,22.3,210.1,22.2z"/>
<path class="st0" d="M224.4,23.2c-0.2,0-0.4,0-0.6-0.1c-0.2,0-0.2-0.1-0.2-0.3s0.3-0.4,1-0.5c0.6-0.1,1.2-0.3,1.7-0.7
	c0.4-0.4,0.6-1,0.5-1.6V6.6c0.1-0.6-0.1-1.1-0.4-1.6c-0.5-0.4-1-0.6-1.6-0.7c-0.3,0-0.5-0.1-0.8-0.2c-0.1-0.1-0.2-0.2-0.2-0.4
	c0-0.1,0.1-0.2,0.2-0.2c0.2-0.1,0.4-0.1,0.6-0.1c0.8,0,1.4,0,1.9,0h1.6h3.9h2h1.7h0.8c0.1,0,0.2,0,0.3,0.1c0.1,0,0.2,0.1,0.2,0.2
	c0.1,0.6,0.2,1.1,0.3,1.7c0.1,0.5,0.1,0.9,0.1,1.4c0,0.1,0,0.3-0.1,0.4c-0.1,0.1-0.2,0.1-0.3,0.1c-0.1,0-0.2,0-0.2-0.1
	c-0.1-0.1-0.1-0.1-0.1-0.2c-0.1-0.3-0.2-0.7-0.3-1c-0.1-0.3-0.2-0.5-0.4-0.7c-0.3-0.3-0.6-0.5-0.9-0.7c-0.3-0.1-0.7-0.2-1.1-0.2h-4
	c-0.2,0-0.5,0.1-0.7,0.3c-0.3,0.1-0.4,0.4-0.4,0.7v6.4c0,0.2,0.1,0.3,0.2,0.5c0.1,0.1,0.2,0.2,0.4,0.2h3c0.4,0,0.9-0.1,1.2-0.3
	c0.3-0.3,0.5-0.7,0.5-1.2c0.1-0.4,0.3-0.7,0.5-0.7c0.1,0,0.2,0.1,0.3,0.1c0.1,0.1,0.1,0.2,0.1,0.4c0,0.1,0,0.3,0,0.5s0,0.6-0.1,0.9
	s0,0.5,0,0.7s0,0.5,0,0.8s0,0.6,0,0.9s0,0.5,0,0.6c0,0.1,0,0.2,0,0.4c0,0.1-0.1,0.2-0.2,0.1c-0.3,0-0.5-0.3-0.7-1
	c-0.1-0.4-0.2-0.7-0.5-1c-0.2-0.2-0.6-0.4-0.9-0.3h-2.8c-0.3,0-0.5,0-0.8,0.1c-0.2,0.1-0.3,0.3-0.3,0.6V20c-0.1,0.6,0.1,1.1,0.5,1.6
	c0.4,0.3,1,0.5,1.5,0.4h2.2c0.5,0,1.1,0,1.6-0.1c0.4-0.1,0.8-0.2,1.1-0.4c0.3-0.2,0.6-0.5,0.9-0.9c0.3-0.5,0.6-0.9,0.9-1.4
	c0.1-0.1,0.1-0.2,0.2-0.3c0.1-0.1,0.2-0.1,0.3-0.1c0.1,0,0.2,0.1,0.2,0.1c0.1,0.1,0.1,0.2,0.1,0.3c0,0.3-0.1,0.7-0.1,1
	c-0.1,0.5-0.2,0.9-0.4,1.4s-0.3,0.9-0.4,1.1s-0.1,0.3-0.2,0.4c0,0.1-0.2,0.2-0.3,0.1c-1,0-1.9,0-2.7,0l-2.4-0.1l-2.2-0.1
	c-0.7,0-1.4,0-2.2,0c-0.4,0-0.8,0-1.1,0l-1,0.1C225.4,23.2,225,23.2,224.4,23.2z"/>
<path class="st0" d="M261,23.6c-0.4-0.1-0.7-0.2-1.1-0.5c-0.6-0.4-1.1-0.9-1.5-1.4l-0.7-0.9l-1.6-1.9l-2.1-2.5
	c-0.8-0.9-1.5-1.8-2.2-2.6l-2.1-2.4l-1.6-1.9l-0.8-1c-0.1-0.1-0.2-0.3-0.4-0.4C246.9,8,246.8,8,246.7,8c-0.1,0-0.2,0.1-0.2,0.2
	c0,0.1-0.1,0.3-0.1,0.4c0,1,0,2.1-0.1,3.4s0,2.6-0.1,4s0,2.7,0,3.9c0,0.5,0.1,1.1,0.4,1.5c0.3,0.5,0.9,0.8,1.5,0.9
	c0.3,0,0.5,0.1,0.8,0.2c0.1,0.1,0.2,0.2,0.2,0.3c0,0.1-0.1,0.2-0.2,0.3c-0.2,0.1-0.4,0.1-0.6,0.1c-0.5,0-1,0-1.2,0l-0.7-0.1
	c-0.2,0-0.5,0-0.9,0s-0.6,0-0.9,0l-0.7,0.1c-0.4,0-0.8,0-1.2,0c-0.2,0-0.4,0-0.6-0.1c-0.2,0-0.2-0.1-0.2-0.3c0-0.2,0.1-0.3,0.2-0.3
	c0.2-0.1,0.5-0.2,0.8-0.2c0.5-0.1,1-0.4,1.3-0.9c0.3-0.5,0.4-1,0.5-1.6c0.1-0.8,0.2-1.8,0.2-3s0.1-2.7,0.2-4.2s0.1-3.2,0.1-4.8
	c0.1-0.8-0.2-1.7-0.8-2.3c-0.6-0.5-1.4-0.9-2.1-1.1l-0.5-0.3c-0.3-0.1-0.4-0.3-0.4-0.5c0-0.2,0.1-0.3,0.3-0.3c0.1,0,0.3-0.1,0.4-0.1
	l1.4,0h1h0.9h1.3c0.2,0,0.3,0,0.4,0.2c0.1,0.1,0.2,0.2,0.3,0.4c0.1,0.1,0.4,0.4,0.8,1l1.6,2.2c0.7,0.8,1.4,1.7,2.2,2.7l2.4,2.9
	l2.2,2.7l1.7,2.1l0.8,1l0.3,0.4c0.1,0.1,0.2,0.2,0.4,0.2c0.2,0,0.3-0.2,0.3-0.6c0-0.3,0-0.8,0-1.6c0-0.8,0-1.8,0-2.9s0-2.4,0-3.7
	V6.1c0-0.4-0.2-0.8-0.6-1.1c-0.3-0.3-0.7-0.5-1.1-0.6c-0.3-0.1-0.6-0.1-0.9-0.2c-0.3-0.1-0.4-0.2-0.4-0.4s0.1-0.2,0.4-0.2
	c0.3-0.1,0.5-0.1,0.8-0.1h2.9h0.9c0.3,0,0.8,0,1.4,0c0.2,0,0.4,0,0.6,0.1c0.2,0,0.2,0.1,0.2,0.2c0,0.3-0.3,0.5-1,0.6
	c-0.5,0.1-1,0.2-1.5,0.5c-0.3,0.3-0.4,0.6-0.4,1c0,0.1,0,0.5,0,1.2s0,1.5,0,2.6s0,2.2,0,3.4s0,2.4,0,3.6v3.2c0,0.5,0,0.9,0,1.3
	s0,0.7,0.1,1s0,0.5,0,0.6c0,0.3-0.1,0.5-0.2,0.6C261.3,23.6,261.2,23.6,261,23.6z"/>
<path class="st0" d="M278.1,23.3l-1.3-0.1c-0.7,0-1.5-0.1-2.4-0.1s-1.7,0-2.5,0c-0.4,0-0.7,0-1,0l-0.9,0.1c-0.3,0-0.7,0-1.3,0
	c-0.2,0-0.4,0-0.6-0.1c-0.1,0-0.2-0.2-0.2-0.3c0-0.1,0.1-0.3,0.2-0.3c0.2-0.1,0.5-0.1,0.8-0.2c0.6-0.1,1.1-0.3,1.6-0.7
	c0.3-0.5,0.5-1,0.4-1.6V6.6c0.1-0.6-0.1-1.1-0.4-1.6c-0.5-0.4-1-0.6-1.6-0.7c-0.3,0-0.5-0.1-0.8-0.2c-0.1,0-0.2-0.2-0.2-0.3
	c0-0.1,0.1-0.3,0.2-0.3c0.2-0.1,0.4-0.1,0.6-0.1h1.2h0.9h1.2h1.2l1.5-0.1l1.5-0.1h1c1.8,0,3.5,0.2,5.2,0.7c1.3,0.4,2.5,1.1,3.5,2
	c0.9,0.8,1.6,1.9,2,3c0.4,1.2,0.7,2.5,0.6,3.7c0,1.4-0.3,2.8-0.8,4.1c-0.5,1.3-1.3,2.4-2.2,3.4c-1,1-2.1,1.7-3.4,2.3
	C280.9,23,279.5,23.3,278.1,23.3z M277.7,22.2c1.5,0,2.9-0.4,4.1-1.1c1.2-0.8,2.2-1.9,2.8-3.2c0.7-1.4,1-3,1-4.6
	c0-1.3-0.2-2.6-0.7-3.9c-0.4-1.1-1.1-2-1.9-2.9c-0.8-0.8-1.7-1.4-2.7-1.8c-1-0.4-2-0.6-3-0.6c-0.9,0-1.6,0-2.2,0.1
	c-0.5,0-1,0.2-1.4,0.5c-0.4,0.3-0.6,0.8-0.5,1.3v13.4c-0.1,0.7,0.2,1.3,0.7,1.8c0.5,0.4,1.1,0.7,1.7,0.8
	C276.3,22.2,277,22.3,277.7,22.2z"/>
<path class="st0" d="M291.8,23.2c-0.2,0-0.4,0-0.6-0.1c-0.2,0-0.2-0.1-0.2-0.3s0.3-0.4,1-0.5c0.6-0.1,1.2-0.3,1.8-0.7
	c0.4-0.4,0.7-1,0.6-1.5V6.5c0-0.5-0.1-1.1-0.4-1.5c-0.4-0.4-1-0.6-1.6-0.7c-0.7-0.1-1-0.3-1-0.6c0-0.1,0.1-0.2,0.2-0.2
	c0.2-0.1,0.4-0.1,0.6-0.1c0.5,0,1,0,1.3,0h1h2.3h0.9c0.3,0,0.8,0,1.3,0c0.2,0,0.4,0,0.6,0.1c0.2,0,0.2,0.1,0.2,0.2
	c0,0.2-0.1,0.3-0.2,0.4c-0.2,0.1-0.5,0.2-0.8,0.2c-0.6,0.1-1.2,0.3-1.6,0.7c-0.4,0.4-0.6,0.9-0.5,1.5v13.6c-0.1,0.6,0.2,1.2,0.6,1.5
	c0.5,0.4,1.1,0.6,1.8,0.7c0.3,0,0.5,0.1,0.8,0.2c0.1,0.1,0.2,0.2,0.2,0.3c0,0.1-0.1,0.2-0.2,0.3c-0.2,0.1-0.4,0.1-0.6,0.1
	c-0.5,0-1,0-1.3,0l-1-0.1c-0.3,0-0.7,0-1.2,0s-0.9,0-1.3,0l-1.1,0.1C292.8,23.2,292.3,23.2,291.8,23.2z"/>
<path class="st0" d="M54.1,32.4c0-0.4,0.1-0.7,0.2-1.1c0.1-0.4,0.3-0.7,0.6-1c0.3-0.3,0.6-0.5,0.9-0.7c0.4-0.2,0.8-0.2,1.2-0.2
	c0.5,0,1,0.1,1.4,0.4c0.4,0.2,0.7,0.6,0.9,0.9l-0.7,0.5c-0.1-0.2-0.2-0.4-0.4-0.6c-0.2-0.1-0.4-0.2-0.6-0.3
	c-0.2-0.1-0.4-0.1-0.6-0.1c-0.3,0-0.6,0.1-0.8,0.2c-0.2,0.1-0.4,0.3-0.6,0.5c-0.2,0.2-0.3,0.4-0.4,0.7c-0.1,0.2-0.1,0.5-0.1,0.8
	c0,0.3,0.1,0.6,0.2,0.8c0.1,0.3,0.2,0.5,0.4,0.7c0.2,0.2,0.4,0.4,0.6,0.5c0.2,0.1,0.5,0.2,0.8,0.2c0.2,0,0.4,0,0.6-0.1
	c0.2-0.1,0.4-0.2,0.6-0.3c0.2-0.2,0.3-0.4,0.4-0.6l0.8,0.5c-0.1,0.3-0.3,0.6-0.6,0.8c-0.3,0.2-0.6,0.4-0.9,0.5
	c-0.3,0.1-0.7,0.2-1,0.2c-0.4,0-0.8-0.1-1.2-0.3c-0.7-0.4-1.2-1-1.5-1.7C54.2,33.2,54.1,32.8,54.1,32.4z"/>
<path class="st0" d="M66.5,35.5c-0.4,0-0.8-0.1-1.2-0.2c-0.3-0.2-0.7-0.4-0.9-0.7c-0.3-0.3-0.5-0.6-0.6-1c-0.1-0.4-0.2-0.7-0.2-1.1
	c0-0.4,0.1-0.8,0.2-1.1c0.1-0.4,0.3-0.7,0.6-1c0.3-0.3,0.6-0.5,0.9-0.7c0.4-0.2,0.7-0.2,1.1-0.2c0.4,0,0.8,0.1,1.2,0.3
	c0.3,0.2,0.7,0.4,0.9,0.7c0.2,0.3,0.4,0.6,0.6,1c0.1,0.4,0.2,0.7,0.2,1.1c0,0.4-0.1,0.8-0.2,1.1c-0.3,0.7-0.8,1.3-1.5,1.6
	C67.3,35.4,66.9,35.5,66.5,35.5z M64.6,32.5c0,0.3,0,0.5,0.1,0.8c0.1,0.3,0.2,0.5,0.4,0.7c0.3,0.4,0.8,0.7,1.4,0.7
	c0.3,0,0.6-0.1,0.8-0.2c0.2-0.1,0.4-0.3,0.6-0.5c0.2-0.2,0.3-0.5,0.4-0.7c0.1-0.3,0.1-0.5,0.1-0.8c0-0.3,0-0.5-0.1-0.8
	c-0.1-0.3-0.2-0.5-0.4-0.7c-0.2-0.2-0.4-0.4-0.6-0.5c-0.2-0.1-0.5-0.2-0.8-0.2c-0.3,0-0.6,0.1-0.8,0.2c-0.2,0.1-0.4,0.3-0.6,0.5
	c-0.2,0.2-0.3,0.4-0.4,0.7C64.6,31.9,64.6,32.2,64.6,32.5L64.6,32.5z"/>
<path class="st0" d="M79.1,35.4v-4.2l-1.8,3.2h-0.6l-1.8-3.2v4.3h-0.9v-6h1l2,3.6l2-3.6h1v6L79.1,35.4z"/>
<path class="st0" d="M89.3,34.6v0.8h-4.1v-6h4v0.8h-3.1V32h2.7v0.8h-2.7v1.8L89.3,34.6z"/>
<path class="st0" d="M94.1,35.4v-6h2.6c0.3,0,0.5,0.1,0.7,0.2c0.2,0.1,0.4,0.3,0.6,0.4c0.2,0.2,0.3,0.4,0.4,0.6
	c0.1,0.2,0.1,0.5,0.1,0.7c0,0.3-0.1,0.5-0.2,0.7c-0.1,0.2-0.2,0.4-0.4,0.6c-0.2,0.2-0.4,0.3-0.6,0.4l1.4,2.3h-1.1l-1.3-2.1h-1.4v2.1
	L94.1,35.4z M95.1,32.5h1.6c0.2,0,0.3-0.1,0.5-0.2c0.1-0.1,0.2-0.2,0.3-0.4c0.1-0.2,0.1-0.4,0.1-0.6c0-0.2,0-0.4-0.1-0.6
	c-0.1-0.2-0.2-0.3-0.3-0.4c-0.1-0.1-0.3-0.1-0.5-0.1h-1.6V32.5z"/>
<path class="st0" d="M103.1,32.4c0-0.4,0.1-0.7,0.2-1.1c0.1-0.4,0.3-0.7,0.6-1c0.3-0.3,0.6-0.5,0.9-0.7c0.4-0.2,0.8-0.3,1.2-0.2
	c0.5,0,1,0.1,1.4,0.4c0.4,0.2,0.7,0.6,0.9,0.9l-0.7,0.5c-0.1-0.2-0.2-0.4-0.4-0.6c-0.2-0.1-0.4-0.2-0.6-0.3
	c-0.2-0.1-0.4-0.1-0.6-0.1c-0.3,0-0.6,0.1-0.8,0.2c-0.2,0.1-0.4,0.3-0.6,0.5c-0.2,0.2-0.3,0.4-0.4,0.7c-0.1,0.2-0.1,0.5-0.1,0.8
	c0,0.3,0.1,0.6,0.2,0.8c0.1,0.3,0.2,0.5,0.4,0.7c0.2,0.2,0.4,0.4,0.6,0.5c0.2,0.1,0.5,0.2,0.8,0.2c0.2,0,0.4,0,0.6-0.1
	c0.2-0.1,0.4-0.2,0.6-0.3c0.2-0.2,0.3-0.4,0.4-0.6l0.8,0.5c-0.1,0.3-0.3,0.6-0.6,0.8c-0.3,0.2-0.6,0.4-0.9,0.5
	c-0.3,0.1-0.7,0.2-1,0.2c-0.4,0-0.8-0.1-1.2-0.3c-0.3-0.2-0.6-0.4-0.9-0.7c-0.3-0.3-0.4-0.6-0.6-1C103.1,33.1,103.1,32.8,103.1,32.4
	z"/>
<path class="st0" d="M113,35.4v-6h1v6H113z"/>
<path class="st0" d="M121.6,35.5c-0.4,0-0.8-0.1-1.2-0.2c-0.3-0.2-0.6-0.4-0.9-0.7c-0.3-0.3-0.4-0.6-0.6-1c-0.1-0.4-0.2-0.7-0.2-1.1
	c0-0.4,0.1-0.8,0.2-1.1c0.1-0.4,0.3-0.7,0.6-1c0.3-0.3,0.6-0.5,0.9-0.7c0.4-0.2,0.7-0.2,1.1-0.2c0.4,0,0.8,0.1,1.2,0.3
	c0.3,0.2,0.7,0.4,0.9,0.7c0.2,0.3,0.4,0.6,0.6,1c0.1,0.4,0.2,0.7,0.2,1.1c0,0.4-0.1,0.8-0.2,1.1c-0.1,0.4-0.3,0.7-0.6,1
	c-0.3,0.3-0.6,0.5-0.9,0.7C122.4,35.4,122,35.5,121.6,35.5z M119.7,32.5c0,0.3,0,0.5,0.1,0.8c0.1,0.3,0.2,0.5,0.4,0.7
	c0.2,0.2,0.4,0.4,0.6,0.5c0.2,0.1,0.5,0.2,0.8,0.2c0.3,0,0.6-0.1,0.8-0.2c0.2-0.1,0.4-0.3,0.6-0.5c0.2-0.2,0.3-0.5,0.4-0.7
	c0.1-0.3,0.1-0.5,0.1-0.8c0-0.3,0-0.5-0.1-0.8c-0.1-0.3-0.2-0.5-0.4-0.7c-0.2-0.2-0.4-0.4-0.6-0.5c-0.2-0.1-0.5-0.2-0.8-0.2
	c-0.3,0-0.6,0.1-0.8,0.2c-0.2,0.1-0.4,0.3-0.6,0.5c-0.2,0.2-0.3,0.4-0.4,0.7C119.8,32,119.7,32.2,119.7,32.5L119.7,32.5z"/>
<path class="st0" d="M139.2,34.6v0.8h-4.1v-6h4v0.8h-3.1V32h2.7v0.8h-2.7v1.8L139.2,34.6z"/>
<path class="st0" d="M144.4,29.5l1.6,2.3l1.6-2.3h1l-2.1,3l2.1,2.9h-1l-1.6-2.3l-1.6,2.3h-1l2.1-2.9l-2.1-3H144.4z"/>
<path class="st0" d="M157.6,30.3h-2v5.1h-1v-5.1h-2v-0.8h4.9L157.6,30.3z"/>
<path class="st0" d="M166.3,34.6v0.8h-4.1v-6h4v0.8h-3.1V32h2.7v0.8h-2.7v1.8L166.3,34.6z"/>
<path class="st0" d="M171.1,35.4v-6h2.6c0.3,0,0.5,0.1,0.7,0.2c0.2,0.1,0.4,0.3,0.6,0.4c0.2,0.2,0.3,0.4,0.4,0.6
	c0.1,0.2,0.1,0.5,0.1,0.7c0,0.3-0.1,0.5-0.1,0.7c-0.1,0.2-0.2,0.4-0.4,0.6c-0.2,0.2-0.4,0.3-0.6,0.4l1.4,2.3h-1.1l-1.3-2.1H172v2.1
	L171.1,35.4z M172,32.5h1.6c0.2,0,0.3,0,0.5-0.2c0.1-0.1,0.2-0.2,0.3-0.4c0.1-0.2,0.1-0.4,0.1-0.6c0-0.2,0-0.4-0.1-0.6
	c-0.1-0.2-0.2-0.3-0.4-0.4c-0.1-0.1-0.3-0.1-0.5-0.1H172L172,32.5z"/>
<path class="st0" d="M180.5,35.4v-6h0.9v6H180.5z"/>
<path class="st0" d="M189,35.5c-0.4,0-0.8-0.1-1.2-0.2c-0.3-0.2-0.6-0.4-0.9-0.7c-0.3-0.3-0.4-0.6-0.6-1c-0.1-0.4-0.2-0.7-0.2-1.1
	c0-0.4,0.1-0.8,0.2-1.1c0.1-0.4,0.3-0.7,0.6-1c0.3-0.3,0.6-0.5,0.9-0.7c0.4-0.2,0.7-0.2,1.1-0.2c0.4,0,0.8,0.1,1.2,0.3
	c0.3,0.2,0.7,0.4,0.9,0.7c0.2,0.3,0.4,0.6,0.6,1c0.1,0.4,0.2,0.7,0.2,1.1c0,0.4-0.1,0.8-0.2,1.1c-0.1,0.4-0.3,0.7-0.6,1
	c-0.3,0.3-0.6,0.5-0.9,0.7C189.8,35.4,189.4,35.5,189,35.5z M187.1,32.5c0,0.3,0,0.5,0.1,0.8c0.1,0.3,0.2,0.5,0.4,0.7
	c0.2,0.2,0.4,0.4,0.6,0.5c0.2,0.1,0.5,0.2,0.8,0.2c0.3,0,0.6-0.1,0.8-0.2c0.2-0.1,0.4-0.3,0.6-0.5c0.2-0.2,0.3-0.5,0.4-0.7
	c0.1-0.3,0.1-0.5,0.1-0.8c0-0.3,0-0.5-0.1-0.8c-0.1-0.3-0.2-0.5-0.4-0.7c-0.2-0.2-0.4-0.4-0.6-0.5c-0.2-0.1-0.5-0.2-0.8-0.2
	c-0.3,0-0.6,0.1-0.8,0.2c-0.2,0.1-0.4,0.3-0.6,0.5c-0.2,0.2-0.3,0.4-0.4,0.7C187.2,31.9,187.1,32.2,187.1,32.5L187.1,32.5z"/>
<path class="st0" d="M196.7,35.4v-6h2.6c0.3,0,0.5,0.1,0.7,0.2c0.2,0.1,0.4,0.3,0.6,0.4c0.2,0.2,0.3,0.4,0.4,0.6
	c0.1,0.2,0.1,0.5,0.1,0.7c0,0.3,0,0.5-0.1,0.7c-0.1,0.2-0.2,0.4-0.4,0.6c-0.2,0.2-0.4,0.3-0.6,0.4l1.4,2.3h-1.1l-1.3-2h-1.4v2.1
	L196.7,35.4z M197.6,32.5h1.6c0.2,0,0.3-0.1,0.5-0.2c0.1-0.1,0.2-0.2,0.3-0.4c0.1-0.2,0.1-0.4,0.1-0.6c0-0.2,0-0.4-0.1-0.6
	c-0.1-0.2-0.2-0.3-0.4-0.4c-0.1-0.1-0.3-0.1-0.5-0.1h-1.6L197.6,32.5z"/>
<path class="st0" d="M212.1,29.5l1.6,3l1.7-3h1l-2.2,3.8v2.1h-0.9v-2.1l-2.2-3.8L212.1,29.5z"/>
<path class="st0" d="M226.6,35.4v-6h0.9v5.1h3.2v0.8L226.6,35.4z"/>
<path class="st0" d="M237.6,35.5c-0.4,0-0.8-0.1-1.2-0.2c-0.3-0.2-0.7-0.4-0.9-0.7c-0.3-0.3-0.5-0.6-0.6-1c-0.1-0.4-0.2-0.7-0.2-1.1
	c0-0.4,0.1-0.8,0.2-1.1c0.1-0.4,0.3-0.7,0.6-1c0.3-0.3,0.6-0.5,0.9-0.7c0.4-0.2,0.7-0.2,1.1-0.2c0.4,0,0.8,0.1,1.2,0.3
	c0.3,0.2,0.7,0.4,0.9,0.7c0.2,0.3,0.4,0.6,0.6,1c0.1,0.4,0.2,0.7,0.2,1.1c0,0.4-0.1,0.8-0.2,1.1c-0.1,0.4-0.3,0.7-0.6,1
	c-0.3,0.3-0.6,0.5-0.9,0.7C238.4,35.4,238,35.5,237.6,35.5z M235.7,32.5c0,0.3,0,0.5,0.1,0.8c0.1,0.3,0.2,0.5,0.4,0.7
	c0.3,0.4,0.8,0.7,1.4,0.7c0.3,0,0.6-0.1,0.8-0.2c0.2-0.1,0.4-0.3,0.6-0.5c0.2-0.2,0.3-0.5,0.4-0.7c0.1-0.3,0.1-0.5,0.1-0.8
	c0-0.3,0-0.5-0.1-0.8c-0.1-0.3-0.2-0.5-0.4-0.7c-0.2-0.2-0.4-0.4-0.6-0.5c-0.2-0.1-0.5-0.2-0.8-0.2c-0.3,0-0.6,0.1-0.8,0.2
	c-0.2,0.1-0.4,0.3-0.6,0.5c-0.2,0.2-0.3,0.4-0.4,0.7C235.8,32,235.7,32.2,235.7,32.5L235.7,32.5z"/>
<path class="st0" d="M247.7,35.5c-0.4,0-0.8-0.1-1.1-0.2c-0.3-0.2-0.6-0.4-0.9-0.7c-0.3-0.3-0.5-0.6-0.6-1c-0.3-0.7-0.3-1.6,0-2.3
	c0.1-0.4,0.3-0.7,0.6-1c0.3-0.3,0.6-0.5,0.9-0.7c0.8-0.3,1.8-0.3,2.6,0.1c0.4,0.2,0.7,0.6,0.9,1l-0.7,0.5c-0.1-0.3-0.4-0.6-0.7-0.7
	c-0.3-0.2-0.6-0.2-0.9-0.2c-0.3,0-0.5,0.1-0.8,0.2c-0.2,0.1-0.4,0.3-0.6,0.5c-0.2,0.2-0.3,0.4-0.4,0.7c-0.1,0.3-0.1,0.5-0.1,0.8
	c0,0.3,0,0.6,0.1,0.8c0.1,0.3,0.2,0.5,0.4,0.7c0.2,0.2,0.4,0.3,0.6,0.5c0.2,0.1,0.5,0.2,0.8,0.2c0.3,0,0.6-0.1,0.9-0.2
	c0.3-0.2,0.6-0.4,0.8-0.7v1C249.1,35.1,248.4,35.5,247.7,35.5z M249.4,33.1h-1.2v-0.7h2v3h-0.8L249.4,33.1z"/>
<path class="st0" d="M255.1,35.4v-6h0.9v6H255.1z M255.9,28.9l-0.6-0.2l0.5-0.9h0.9L255.9,28.9z"/>
<path class="st0" d="M264.7,30.9c-0.1-0.1-0.2-0.1-0.2-0.2c-0.1-0.1-0.2-0.1-0.4-0.2c-0.1-0.1-0.3-0.1-0.5-0.1
	c-0.2,0-0.3-0.1-0.5-0.1c-0.3,0-0.6,0-0.9,0.2c-0.2,0.1-0.3,0.4-0.3,0.6c0,0.2,0,0.3,0.2,0.4c0.1,0.1,0.3,0.2,0.5,0.3
	c0.2,0.1,0.5,0.1,0.8,0.2c0.3,0.1,0.7,0.2,1,0.3c0.3,0.1,0.5,0.3,0.7,0.5c0.2,0.3,0.3,0.6,0.2,0.9c0,0.3-0.1,0.5-0.2,0.8
	c-0.1,0.2-0.3,0.4-0.5,0.5c-0.2,0.1-0.4,0.2-0.7,0.3c-0.3,0.1-0.6,0.1-0.9,0.1c-0.3,0-0.6,0-0.9-0.1c-0.3-0.1-0.6-0.2-0.8-0.3
	c-0.3-0.1-0.5-0.3-0.7-0.4l0.4-0.8c0.1,0.1,0.2,0.2,0.3,0.2c0.2,0.1,0.3,0.2,0.5,0.2c0.2,0.1,0.4,0.1,0.6,0.2
	c0.2,0.1,0.4,0.1,0.6,0.1c0.3,0,0.6,0,0.9-0.2c0.2-0.1,0.3-0.3,0.3-0.6c0-0.2-0.1-0.4-0.2-0.5c-0.2-0.1-0.4-0.2-0.6-0.3
	c-0.3-0.1-0.6-0.2-0.9-0.2c-0.3-0.1-0.7-0.2-1-0.3c-0.2-0.1-0.4-0.3-0.6-0.5c-0.1-0.2-0.2-0.5-0.2-0.8c0-0.4,0.1-0.7,0.3-1
	c0.2-0.3,0.5-0.5,0.8-0.6c0.4-0.1,0.7-0.2,1.1-0.2c0.3,0,0.5,0,0.8,0.1c0.2,0,0.5,0.1,0.7,0.2c0.2,0.1,0.4,0.2,0.6,0.4L264.7,30.9z"
	/>
<path class="st0" d="M274.5,30.3h-2v5.1h-1v-5.1h-2v-0.8h4.9L274.5,30.3z"/>
<path class="st0" d="M279.1,35.4v-6h0.9v6H279.1z"/>
<path class="st0" d="M284.9,32.4c0-0.4,0.1-0.7,0.2-1.1c0.1-0.4,0.3-0.7,0.6-1c0.3-0.3,0.6-0.5,0.9-0.7c0.4-0.2,0.8-0.3,1.2-0.2
	c0.5,0,1,0.1,1.4,0.4c0.4,0.2,0.7,0.6,0.9,0.9l-0.7,0.5c-0.1-0.2-0.2-0.4-0.4-0.6c-0.2-0.1-0.3-0.2-0.5-0.3
	c-0.2-0.1-0.4-0.1-0.6-0.1c-0.3,0-0.6,0.1-0.8,0.2c-0.2,0.1-0.4,0.3-0.6,0.5c-0.2,0.2-0.3,0.4-0.4,0.7c-0.1,0.2-0.1,0.5-0.1,0.8
	c0,0.3,0,0.6,0.1,0.8c0.1,0.3,0.2,0.5,0.4,0.7c0.2,0.2,0.4,0.4,0.6,0.5c0.4,0.2,0.9,0.2,1.4,0.1c0.2-0.1,0.4-0.2,0.6-0.3
	c0.2-0.2,0.3-0.4,0.4-0.6l0.8,0.5c-0.1,0.3-0.3,0.6-0.6,0.8c-0.3,0.2-0.6,0.4-0.9,0.5c-0.3,0.1-0.7,0.2-1,0.2
	c-0.4,0-0.8-0.1-1.1-0.3c-0.3-0.2-0.6-0.4-0.9-0.7C285.1,33.9,284.8,33.1,284.9,32.4L284.9,32.4z"/>
<path class="st0" d="M296.4,29.5h0.9l2.3,6h-1l-0.6-1.6h-2.4l-0.6,1.6h-1L296.4,29.5z M297.8,33.1l-0.9-2.6l-1,2.6H297.8z"/>
<path class="st1" d="M33.3,33.5c0.1,0.2,0.2,0.3,0.4,0.4c0.1,0.1,0.3,0.1,0.5,0.1c0.2,0,0.4,0,0.5-0.2c0.1-0.1,0.3-0.2,0.4-0.4
	c0.2-0.3,0.3-0.7,0.3-1.1c0-0.2,0-0.4-0.1-0.6c0-0.2-0.1-0.4-0.2-0.5c-0.1-0.2-0.2-0.3-0.4-0.4c-0.2-0.1-0.3-0.1-0.5-0.1
	c-0.2,0-0.4,0-0.5,0.1c-0.1,0.1-0.3,0.2-0.4,0.4c-0.1,0.2-0.2,0.3-0.2,0.5c0,0.2-0.1,0.4-0.1,0.5c0,0.2,0,0.4,0.1,0.6
	C33.2,33.2,33.2,33.4,33.3,33.5z"/>
<path class="st1" d="M29.3,34c0.1,0.1,0.3,0.1,0.4,0.1c0.2,0,0.3,0,0.5-0.1c0.1-0.1,0.2-0.2,0.3-0.3c0.1-0.1,0.1-0.3,0.1-0.5
	c0-0.2,0-0.3-0.1-0.4c-0.3-0.4-0.8-0.6-1.2-0.3c-0.1,0.1-0.3,0.2-0.3,0.3c-0.1,0.1-0.1,0.3-0.1,0.4c0,0.2,0,0.3,0.1,0.5
	C29.1,33.8,29.2,33.9,29.3,34z"/>
<path class="st1" d="M39.1,12.5C39.1,5.6,33.6,0,26.7,0c0,0,0,0,0,0H15.9v24.9h10.8C33.6,24.9,39.1,19.3,39.1,12.5z"/>
<path class="st1" d="M14.6,0H0v38.8h38.8V26.2H14.6V0z M32.2,31.6c0.1-0.3,0.2-0.6,0.4-0.8c0.2-0.2,0.4-0.4,0.7-0.6
	c0.3-0.2,0.6-0.2,0.9-0.2c0.3,0,0.6,0.1,0.9,0.2c0.3,0.1,0.5,0.4,0.7,0.6c0.2,0.2,0.3,0.5,0.4,0.8c0.1,0.3,0.1,0.5,0.1,0.8
	c0,0.6-0.2,1.2-0.6,1.7c-0.2,0.2-0.4,0.4-0.7,0.6c-0.3,0.1-0.6,0.2-0.9,0.2c-0.3,0-0.6-0.1-0.9-0.2c-0.3-0.1-0.5-0.3-0.7-0.6
	c-0.2-0.2-0.3-0.5-0.4-0.8c-0.1-0.3-0.1-0.5-0.1-0.8C32.1,32.1,32.2,31.9,32.2,31.6z M28.2,31.2c0.1-0.4,0.3-0.7,0.6-0.9
	c0.3-0.2,0.6-0.3,1-0.3c0.3,0,0.6,0.1,0.8,0.2c0.3,0.1,0.5,0.3,0.6,0.6l-0.5,0.6c-0.1-0.2-0.3-0.3-0.4-0.4c-0.2-0.1-0.4-0.2-0.6-0.1
	c-0.2,0-0.4,0.1-0.5,0.2c-0.2,0.1-0.3,0.3-0.4,0.5c-0.1,0.2-0.1,0.5-0.1,0.7c0.1-0.1,0.1-0.2,0.2-0.3c0.1-0.1,0.2-0.1,0.4-0.2
	c0.1,0,0.3-0.1,0.4-0.1c0.3,0,0.6,0.1,0.9,0.2c0.2,0.1,0.5,0.3,0.6,0.6c0.1,0.2,0.2,0.5,0.2,0.8c0,0.3-0.1,0.6-0.2,0.8
	c-0.2,0.2-0.4,0.5-0.6,0.6c-0.3,0.2-0.6,0.2-0.9,0.2c-0.3,0-0.7-0.1-0.9-0.3c-0.3-0.2-0.5-0.5-0.6-0.8c-0.2-0.4-0.2-0.8-0.2-1.2
	C28,32.2,28.1,31.7,28.2,31.2L28.2,31.2z M24.1,30.8c0.2-0.3,0.4-0.5,0.6-0.6c0.3-0.1,0.6-0.2,0.9-0.2c0.3,0,0.7,0.1,0.9,0.3
	c0.3,0.2,0.5,0.5,0.6,0.8c0.2,0.4,0.2,0.8,0.2,1.2c0,0.5-0.1,1-0.2,1.5c-0.1,0.4-0.3,0.7-0.6,0.9c-0.3,0.2-0.6,0.3-1,0.3
	c-0.3,0-0.6-0.1-0.8-0.2c-0.3-0.1-0.5-0.3-0.6-0.6l0.5-0.6c0.1,0.2,0.3,0.3,0.4,0.4c0.2,0.1,0.4,0.1,0.6,0.1c0.2,0,0.4,0,0.5-0.2
	c0.2-0.1,0.3-0.3,0.4-0.5c0.1-0.2,0.1-0.5,0.1-0.7c-0.1,0.1-0.1,0.2-0.2,0.3c-0.1,0.1-0.2,0.1-0.3,0.2c-0.1,0-0.3,0.1-0.4,0.1
	c-0.3,0-0.6-0.1-0.9-0.2c-0.3-0.1-0.5-0.3-0.6-0.6c-0.1-0.2-0.2-0.5-0.2-0.8C23.8,31.4,23.9,31.1,24.1,30.8L24.1,30.8z M20.5,30.6
	c0.1,0,0.3,0,0.4-0.1c0.1-0.1,0.2-0.1,0.4-0.2c0.1-0.1,0.2-0.1,0.3-0.2c0.1-0.1,0.1-0.1,0.1-0.1h0.9v4h0.9v0.8h-2.8V34h0.9v-3.1
	c-0.1,0.1-0.1,0.1-0.2,0.2c-0.1,0.1-0.2,0.1-0.3,0.2c-0.1,0.1-0.2,0.1-0.3,0.1c-0.1,0-0.2,0.1-0.3,0.1L20.5,30.6z"/>
<path class="st1" d="M25.1,32.4c0.1,0.1,0.3,0.1,0.5,0.1c0.2,0,0.3,0,0.4-0.1c0.1-0.1,0.2-0.2,0.3-0.3c0.2-0.3,0.2-0.6,0-0.9
	c-0.1-0.1-0.2-0.2-0.3-0.3c-0.1-0.1-0.3-0.1-0.5-0.1c-0.2,0-0.3,0-0.4,0.1c-0.1,0.1-0.2,0.2-0.3,0.3c-0.1,0.1-0.1,0.3-0.1,0.5
	c0,0.2,0,0.3,0.1,0.4C24.9,32.2,25,32.3,25.1,32.4z"/>
<rect x="14.6" y="26.2" class="st1" width="24.2" height="12.6"/>
<g>
	<path class="st2" d="M30.4,31.5c0.1-0.4,0.3-0.7,0.5-1c0.2-0.3,0.5-0.5,0.8-0.7c0.3-0.2,0.7-0.3,1.1-0.3c0.4,0,0.8,0.1,1.1,0.3
		c0.3,0.2,0.6,0.4,0.8,0.7c0.2,0.3,0.4,0.6,0.5,1c0.1,0.3,0.2,0.7,0.2,1c0,0.7-0.2,1.5-0.7,2c-0.2,0.3-0.5,0.5-0.8,0.7
		c-0.3,0.2-0.7,0.3-1.1,0.3c-0.4,0-0.8-0.1-1.1-0.3c-0.3-0.2-0.6-0.4-0.8-0.7c-0.2-0.3-0.4-0.6-0.5-1c-0.1-0.3-0.2-0.7-0.2-1
		C30.2,32.2,30.2,31.8,30.4,31.5z"/>
	<path class="st2" d="M25.4,31c0.1-0.4,0.4-0.8,0.8-1.1c0.4-0.3,0.8-0.4,1.2-0.4c0.4,0,0.7,0.1,1,0.2c0.3,0.2,0.6,0.4,0.8,0.7
		l-0.6,0.7c-0.1-0.2-0.3-0.4-0.5-0.5c-0.2-0.1-0.4-0.2-0.7-0.2c-0.2,0-0.5,0.1-0.7,0.2c-0.2,0.1-0.3,0.3-0.4,0.6
		c-0.1,0.3-0.2,0.6-0.2,0.9c0.1-0.1,0.2-0.3,0.3-0.3c0.1-0.1,0.3-0.2,0.4-0.2c0.2-0.1,0.3-0.1,0.5-0.1c0.4,0,0.7,0.1,1.1,0.3
		c0.3,0.2,0.6,0.4,0.7,0.7c0.2,0.3,0.3,0.7,0.3,1c0,0.4-0.1,0.7-0.3,1c-0.2,0.3-0.5,0.6-0.8,0.7c-0.3,0.2-0.7,0.3-1.1,0.3
		c-0.4,0-0.8-0.1-1.2-0.3c-0.3-0.2-0.6-0.6-0.8-0.9c-0.2-0.5-0.3-1-0.3-1.5C25.1,32.2,25.2,31.6,25.4,31L25.4,31z"/>
	<path class="st1" d="M31.7,33.9c0.1,0.2,0.3,0.4,0.4,0.5c0.2,0.1,0.4,0.2,0.6,0.2c0.2,0,0.5-0.1,0.7-0.2c0.2-0.1,0.3-0.3,0.4-0.5
		c0.2-0.4,0.3-0.8,0.3-1.3c0-0.2,0-0.5-0.1-0.7c-0.1-0.2-0.1-0.4-0.3-0.6c-0.1-0.2-0.3-0.3-0.4-0.5c-0.2-0.1-0.4-0.2-0.6-0.2
		c-0.2,0-0.4,0.1-0.6,0.2c-0.2,0.1-0.3,0.3-0.4,0.5c-0.1,0.2-0.2,0.4-0.3,0.6c-0.1,0.2-0.1,0.4-0.1,0.7c0,0.2,0,0.5,0.1,0.7
		C31.5,33.5,31.6,33.7,31.7,33.9z"/>
	<path class="st1" d="M26.8,34.5c0.2,0.1,0.3,0.1,0.5,0.1c0.2,0,0.4,0,0.6-0.1c0.2-0.1,0.3-0.2,0.4-0.4c0.1-0.2,0.1-0.4,0.1-0.6
		c0-0.2,0-0.4-0.1-0.5c-0.3-0.5-1-0.7-1.5-0.4c-0.2,0.1-0.3,0.2-0.4,0.4c-0.1,0.2-0.1,0.4-0.1,0.5c0,0.2,0.1,0.4,0.1,0.6
		C26.5,34.2,26.6,34.4,26.8,34.5z"/>
	<path class="st2" d="M20.3,30.5c0.2-0.3,0.5-0.6,0.8-0.7c0.3-0.2,0.7-0.3,1.1-0.3c0.4,0,0.8,0.1,1.2,0.3c0.3,0.2,0.6,0.6,0.8,0.9
		c0.2,0.5,0.3,1,0.3,1.5c0,0.6-0.1,1.2-0.3,1.8c-0.2,0.4-0.4,0.8-0.8,1.1c-0.4,0.3-0.8,0.4-1.2,0.4c-0.4,0-0.7-0.1-1-0.2
		c-0.3-0.2-0.6-0.4-0.8-0.7l0.6-0.7c0.1,0.2,0.3,0.4,0.5,0.5c0.2,0.1,0.4,0.2,0.7,0.2c0.2,0,0.5-0.1,0.7-0.2
		c0.2-0.1,0.3-0.3,0.4-0.6c0.1-0.3,0.2-0.6,0.2-0.9c-0.1,0.1-0.2,0.3-0.3,0.4c-0.1,0.1-0.3,0.2-0.4,0.2c-0.2,0.1-0.3,0.1-0.5,0.1
		c-0.4,0-0.7-0.1-1.1-0.3c-0.3-0.2-0.6-0.4-0.8-0.7c-0.2-0.3-0.3-0.6-0.3-1C20,31.2,20.1,30.8,20.3,30.5L20.3,30.5z"/>
	<path class="st2" d="M15.9,30.3c0.2,0,0.3,0,0.5-0.1c0.2-0.1,0.3-0.2,0.4-0.3c0.1-0.1,0.2-0.2,0.3-0.3c0.1-0.1,0.1-0.1,0.1-0.1h1.1
		v4.9h1.1v1h-3.4v-1h1.2v-3.8c-0.1,0.1-0.1,0.2-0.2,0.2c-0.1,0.1-0.2,0.2-0.4,0.2c-0.1,0.1-0.3,0.1-0.4,0.2c-0.1,0-0.3,0.1-0.4,0.1
		L15.9,30.3z"/>
	<path class="st1" d="M21.6,32.5c0.2,0.1,0.4,0.2,0.6,0.1c0.2,0,0.4,0,0.5-0.1c0.2-0.1,0.3-0.2,0.4-0.4c0.2-0.3,0.2-0.8,0-1.1
		c-0.1-0.2-0.2-0.3-0.4-0.4c-0.2-0.1-0.4-0.1-0.6-0.1c-0.2,0-0.4,0-0.5,0.1c-0.2,0.1-0.3,0.2-0.4,0.4c-0.1,0.2-0.1,0.4-0.1,0.6
		c0,0.2,0,0.4,0.1,0.5C21.3,32.3,21.4,32.4,21.6,32.5z"/>
</g>
</svg>
