<svg xmlns="http://www.w3.org/2000/svg" class="header__logo" viewBox="0 0 1837.41 224.29"><g data-name="Layer 2"><g data-name="Layer 1"><path d="M539.45 44.12h34.39v21.11a62.12 62.12 0 0 1 50.07-23.83 71.36 71.36 0 0 1 32.88 7.85 62.69 62.69 0 0 1 24.74 22.47q9.35 14.64 9.35 34.24v98h-34.69v-88.65q0-13-5.28-22.33a36.7 36.7 0 0 0-14.18-14.32 39.76 39.76 0 0 0-19.76-5A40.74 40.74 0 0 0 594.65 80a42.55 42.55 0 0 0-15.38 17.2 54.58 54.58 0 0 0-5.43 24.73V204h-34.39ZM791 206.4a79.89 79.89 0 0 1-41.47-11.16A82.56 82.56 0 0 1 709 123.75a82.1 82.1 0 0 1 82-82.35 78.49 78.49 0 0 1 37.1 9.05A83.52 83.52 0 0 1 856.78 75a81.09 81.09 0 0 1 14.78 34.84 71 71 0 0 1 .3 26.84h-128.8a47.12 47.12 0 0 0 8.9 20.67A44.37 44.37 0 0 0 768.85 171a52.12 52.12 0 0 0 22.15 4.63 59.77 59.77 0 0 0 24.74-5.27A55.74 55.74 0 0 0 835.36 156l30.47 7.84q-9.36 19.31-30.47 30.92A90.76 90.76 0 0 1 791 206.4Zm46.76-96.22A47.8 47.8 0 0 0 829.33 91 46.08 46.08 0 0 0 813 77.3a48 48 0 0 0-22.32-5.13 48.88 48.88 0 0 0-22.47 5.13A47.11 47.11 0 0 0 751.66 91a46.47 46.47 0 0 0-8.6 19.16ZM967.78 206.4a79.34 79.34 0 0 1-41.17-11.16 82.57 82.57 0 0 1-29.86-30.16 80.9 80.9 0 0 1-11-41.33 80.09 80.09 0 0 1 11-41.17 83 83 0 0 1 29.86-30 81.54 81.54 0 0 1 82.35 0 82.75 82.75 0 0 1 29.86 30.17 82.5 82.5 0 0 1 0 82.35 82.64 82.64 0 0 1-29.82 30.14 79.4 79.4 0 0 1-41.22 11.16Zm0-31.67a47.45 47.45 0 0 0 25-6.94 51.81 51.81 0 0 0 18.1-69.53 49.77 49.77 0 0 0-18.1-18.4 48.32 48.32 0 0 0-25-6.78A47.24 47.24 0 0 0 942.6 80a51.62 51.62 0 0 0-18 18.4 49.66 49.66 0 0 0-6.6 25.35 50.42 50.42 0 0 0 6.64 25.49 51.17 51.17 0 0 0 18 18.55 47.15 47.15 0 0 0 25.14 6.94ZM1145.15 206.4a79.14 79.14 0 0 1-41.48-11.31 82.63 82.63 0 0 1-29.67-30.31 82.22 82.22 0 0 1 30.17-112.37 80.51 80.51 0 0 1 41-11 78 78 0 0 1 46 14.33 80.88 80.88 0 0 1 29.41 37.56l-32 8.44a50.15 50.15 0 0 0-17.35-21.11 44.37 44.37 0 0 0-26.09-8.15 46.53 46.53 0 0 0-25.14 7.08 52.1 52.1 0 0 0-18 18.85 50.79 50.79 0 0 0-6.63 25.34 51.89 51.89 0 0 0 6.63 25.94 49.22 49.22 0 0 0 18.1 18.55 48.21 48.21 0 0 0 25 6.79 44.74 44.74 0 0 0 26.24-8 49.49 49.49 0 0 0 17.2-21l32 8.75a81 81 0 0 1-29.41 37.25 78 78 0 0 1-45.98 14.37ZM1315.27 206.4a79.36 79.36 0 0 1-41.17-11.16 82.57 82.57 0 0 1-29.86-30.16 80.9 80.9 0 0 1-11-41.33 80.09 80.09 0 0 1 11-41.17 83 83 0 0 1 29.86-30 81.54 81.54 0 0 1 82.35 0 82.75 82.75 0 0 1 29.86 30.17 82.5 82.5 0 0 1 0 82.35 82.64 82.64 0 0 1-29.86 30.16 79.4 79.4 0 0 1-41.18 11.14Zm0-31.67a47.42 47.42 0 0 0 25-6.94 51.81 51.81 0 0 0 18.1-69.53 49.77 49.77 0 0 0-18.1-18.4 48.3 48.3 0 0 0-25-6.78 47.24 47.24 0 0 0-25.18 6.92 51.62 51.62 0 0 0-17.95 18.4 49.66 49.66 0 0 0-6.64 25.34 50.42 50.42 0 0 0 6.64 25.49 51.17 51.17 0 0 0 17.95 18.55 47.15 47.15 0 0 0 25.18 6.95ZM1471.22 206.4q-23.23 0-41.32-11.76t-18.1-37.41q-.3-16.28 7.24-27.29t22.47-16.75q14.92-5.72 36.35-5.73l48.56-.3v-9.65q0-13.58-10.86-20.21t-28-6.64q-14.48 0-25 5.13a23.65 23.65 0 0 0-13.27 16.59L1416 93a43.1 43.1 0 0 1 10-27.59q9.64-11.61 25.64-17.8a96.22 96.22 0 0 1 35-6.19 100.73 100.73 0 0 1 36.19 6.34q16.59 6.33 26.4 18.25a41.77 41.77 0 0 1 9.8 27.3V204h-32.58v-24.14q-6.63 9.66-20.66 18.1t-34.57 8.44Zm2.72-28.65a54.13 54.13 0 0 0 25-6.19 55.8 55.8 0 0 0 19.79-16.56 37.45 37.45 0 0 0 7.69-22.77h-42.53q-13.58 0-22.17 3.47t-12.37 9.5a20.5 20.5 0 0 0-3.16 13q1.2 10.26 9.2 14.93a36 36 0 0 0 18.55 4.62ZM1650.39 206.4a110.75 110.75 0 0 1-33.78-5.28 151.75 151.75 0 0 1-32.61-14.93V150.3q11.46 9.94 29.72 17.94a90.61 90.61 0 0 0 36.64 8 50.81 50.81 0 0 0 15.39-2.11 23.53 23.53 0 0 0 10.4-6.19 13.51 13.51 0 0 0 3.78-9.5q0-7.53-9.36-12.67t-31.67-10q-29.57-6.33-43.59-17t-14-29.4a40.24 40.24 0 0 1 8.75-25.8q8.75-11 23.52-16.59a90.92 90.92 0 0 1 32.28-5.58 103 103 0 0 1 32.73 5 173.7 173.7 0 0 1 29.11 12.82v31.65a148.09 148.09 0 0 0-32.28-14.78 100.94 100.94 0 0 0-29.56-4.82 46.91 46.91 0 0 0-14.93 2.26 26 26 0 0 0-10.71 6.33 13.27 13.27 0 0 0-3.92 9.51q0 6.63 6.33 10.25t20.82 6.94c2.81.6 5.68 1.21 8.59 1.81s6 1.31 9.2 2.11q28.35 6.64 40.88 18.7a39.5 39.5 0 0 1 12.51 29.56q0 23.83-18.7 35.75t-45.54 11.91ZM1837.41 202.78q-24.44 6.63-43.74 3t-30.16-17q-10.86-13.42-10.86-36.35L1753 74h-30.16V44.12H1753l.3-39.52h34.09l-.3 39.52h49.16V74H1787l-.31 78.13q0 9.64 5.74 15.53t17 6.64q11.31.75 27.9-5ZM331.66 185.15c-28.77 44.55-101.28 54-136.84 13-10.63-12.28-17.71-20.4-22.1-26.38a3 3 0 0 1 4.3-4.23c18.84 13.77 48.86 24.62 82.38-27.29l75.5-116.92A51 51 0 0 1 380.08.05l67.08 3a1.19 1.19 0 0 1 .95 1.84L331.66 185.15M116.64 39.14c28.77-44.55 101.28-54 136.84-13 10.64 12.28 17.72 20.39 22.11 26.38a3 3 0 0 1-4.3 4.23C252.44 43 222.43 32.16 188.9 84.06L113.4 201a51 51 0 0 1-45.18 23.27l-67.07-2.99a1.2 1.2 0 0 1-1-1.85L116.64 39.14" class="cls-1"/></g></g></svg>